<svg xmlns="http://www.w3.org/2000/svg" viewBox="0 0 868.348 712.824"><defs><style>.a{fill:#fff;}</style></defs><title>Logo</title><path class="a" d="M501.943,218.259c10.836.789,21.819.73,32.468,2.588,12.445,2.172,24.682,5.728,36.842,9.262,5.47,1.59,10.557,4.53,15.773,6.954,9.751,4.532,19.788,8.573,29.112,13.866a243.666,243.666,0,0,1,26.035,17.628c6.331,4.771,12.033,10.392,17.893,15.768,2.633,2.416,4.789,5.381,7.559,7.6.729.584,3.554-.179,4.378-1.179q14.11-17.136,27.851-34.578c8.031-10.189,15.643-20.714,23.846-30.759,9.166-11.223,18.935-21.952,28.119-33.161C754,189,755.523,185.209,758,182c3.1-4.021,6.9-7.837,10.374-11.585,3.172-3.42,6.888-6.606,9.058-10.6,1.89-3.482,2-7.947,2.818-11.992.929-4.57,2.257-9.125,2.566-13.743.651-9.742,10.872-6.425,14.908-11.408a6.084,6.084,0,0,1,1.543-.952,1.272,1.272,0,0,0-.179-.378,11.332,11.332,0,0,0-1.77.533c-3.472,1.557-6.925,3.158-10.407,4.692-.347.153-.848-.046-1.278-.081.155-.517.153-1.331.487-1.508,9.6-5.076,19.156-10.226,28.88-15.045a115.648,115.648,0,0,1,12.647-4.806c.517-.184,1.785.186,1.812.409.565,4.575,2.03,9.348,1.259,13.718-2.02,11.442-4.879,22.748-7.807,34-.425,1.632-2.99,2.794-4.694,3.99-6.1,4.281-12.278,8.45-18.345,12.776a2.662,2.662,0,0,0-.563,2.4c5.669,16.178,12.092,32.127,16.991,48.531,6.1,20.414,11.972,40.7,27.549,56.388,8.752,8.813,18.041,17.17,26.09,26.586,11.6,13.572,23.146,27.347,33.093,42.126,7.3,10.85,12.075,23.417,17.822,35.293a46.756,46.756,0,0,1,3.949,10.516c1.46,6.937,2.221,14.018,3.462,21,1.881,10.6,4.522,21.1,5.713,31.765a149.59,149.59,0,0,1,.36,27.152c-1.072,14.958-2.3,29.974-4.818,44.736-2.039,11.973-6.037,23.615-9.217,35.39-.776,2.876-1.686,5.722-2.671,8.534a9.868,9.868,0,0,1-1.59,2.247,10.316,10.316,0,0,1,0-2.581c.756-2.955,1.669-5.87,2.462-8.816a5.476,5.476,0,0,0-.062-1.612,4.732,4.732,0,0,0-.882,1.059c-4.584,10.982-8.626,22.23-13.885,32.878-3.623,7.336-8.634,14.059-13.556,20.66a244.99,244.99,0,0,1-16.662,20.145c-8.9,9.6-18.256,18.79-27.438,28.133a4.623,4.623,0,0,1-1.32.659,4.412,4.412,0,0,1,.29-1.595c5.664-8.763,11.656-17.33,16.975-26.3a242.7,242.7,0,0,0,12.808-24.459c3.972-8.859,7.073-18.11,10.521-27.2a12.475,12.475,0,0,0,.416-2.3c-.512.531-1.05,1.041-1.534,1.6-10.476,12.054-20.9,24.154-31.434,36.159-7.377,8.408-13.888,18-22.6,24.705-11.931,9.179-25.554,16.17-38.536,23.957-1.689,1.013-3.881,1.187-5.84,1.75a57.685,57.685,0,0,0,5.189-4.041c9.055-8.808,19.055-16.9,26.767-26.766,8.673-11.1,15.833-23.52,22.614-35.932,9.55-17.484,18.638-35.315,20.551-55.685,1-10.594,2.73-21.21,2.585-31.8-.142-10.329-2.1-20.652-3.55-30.937a157.923,157.923,0,0,0-3.821-20.617c-2.9-10.357-6.426-20.553-10-30.706-2.289-6.5-4.226-13.41-7.945-19.07a367.613,367.613,0,0,0-23.311-31.29c-11.283-13.738-23.644-26.609-34.6-40.594-4.882-6.236-7.68-14.178-11.026-21.527-6.1-13.393-12.342-26.75-17.669-40.454-3.524-9.068-5.527-18.724-8.294-28.092a15.039,15.039,0,0,0-1.78-3.093,23.16,23.16,0,0,0-1.952,1.854c-8.415,10.009-16.9,19.957-25.184,30.078-10.052,12.291-19.936,24.72-29.812,37.153a2.848,2.848,0,0,0,.217,2.422c7.134,12.859,14.751,25.47,21.388,38.578,5.7,11.25,11.183,22.767,15.1,34.712a156.686,156.686,0,0,1,6.655,33c1.9,18.965,2.823,38.044,3.6,57.1.277,6.794-1.111,13.65-1.664,20.483-.6,7.443-.506,15-1.835,22.31a156.735,156.735,0,0,1-6.372,22.809c-2.9,8.424-6.145,16.772-9.859,24.868-4.283,9.335-9.1,18.436-13.957,27.492-3.748,6.985-7.668,13.906-11.981,20.551A122.947,122.947,0,0,1,673.9,628.171c-7.13,7.847-14.281,15.829-22.4,22.581A210.72,210.72,0,0,1,624.63,669.2c-10.8,6.45-21.811,12.745-33.313,17.775-14.642,6.4-29.867,11.472-44.847,17.1a6.31,6.31,0,0,1-1.382.194,5.284,5.284,0,0,1,1.041-.758c9.051-3.684,18.162-7.226,27.152-11.051,7.582-3.227,15.218-6.416,22.488-10.269,11.338-6.009,22.391-12.557,33.543-18.915a7.153,7.153,0,0,0,1.438-1.536,16.407,16.407,0,0,1-1.788-.416c-15.229-5.313-28.3-.1-41.014,7.976-11.159,7.091-22.683,13.6-33.964,20.506-6.548,4.006-12.845,8.426-19.429,12.37-3.749,2.245-7.951,3.727-11.732,5.925-1.353.787-1.773,3.23-3.13,3.946-4.071,2.148-8.289,5.016-12.642,5.4-6.98.611-14.134-.369-21.17-1.1-1.52-.159-2.952-2.026-4.249-3.286-2.91-2.829-5.288-6.446-8.635-8.536-8.914-5.566-18.273-10.412-27.367-15.7-12.534-7.284-24.856-14.945-37.534-21.967-5.826-3.226-12.092-6.61-18.5-7.548-6.1-.892-12.656,1.31-19.01,2.151a5.333,5.333,0,0,0,.877,1.665C383.844,673.8,398.643,680,413.625,685.905c11.019,4.347,21.943,8.939,32.872,13.512,2.922,1.223,5.71,2.771,8.55,4.187a5.665,5.665,0,0,1,.853.644,4.232,4.232,0,0,1-1.141-.091c-11.315-4.149-22.7-8.115-33.91-12.541-10.235-4.042-20.536-8.069-30.314-13.07-7.738-3.958-14.858-9.194-22.015-14.2-8.971-6.275-18.428-12.126-26.332-19.583-8.076-7.62-14.753-16.787-21.612-25.611a236.942,236.942,0,0,1-14.124-20.525,169.109,169.109,0,0,1-10.107-18.786C290.9,567.922,285.33,556.005,280.89,543.7c-3.548-9.835-5.639-20.214-8.089-30.421a65.1,65.1,0,0,1-1.881-13.186c-.411-14.153-.8-28.321-.58-42.473.17-11.147.449-22.4,2.109-33.391,2.343-15.514,4.3-31.44,9.549-46.07,6.155-17.166,15.5-33.208,23.783-49.579,3.424-6.77,7.711-13.1,11.461-19.714.334-.589-.128-2.006-.674-2.662q-10.173-12.224-20.5-24.321c-6.213-7.289-12.568-14.458-18.715-21.8-4.79-5.722-9.35-11.636-14.031-17.449a23.9,23.9,0,0,0-1.77-1.79,11.641,11.641,0,0,0-1.82,2.789c-2.061,6.967-3.511,14.156-6.078,20.924-4.987,13.152-10.386,26.157-15.984,39.063-4.072,9.389-7.945,19.021-13.369,27.621-4.922,7.8-11.932,14.269-17.824,21.486-12.72,15.579-26.36,30.555-37.582,47.158-7.173,10.614-11.147,23.527-15.709,35.725a253.118,253.118,0,0,0-8.584,29.46,155.5,155.5,0,0,0-3.127,20.889c-.98,9.8-1.9,19.642-2.114,29.481-.13,5.971,1.361,11.959,1.706,17.963,1.129,19.68,7.281,37.827,17.118,54.676,7.185,12.307,15.112,24.187,22.884,36.143,3.9,6,7.513,12.4,12.471,17.419,5.935,6.01,13.176,10.728,19.828,16.036a17.319,17.319,0,0,1,1.818,1.962,6.506,6.506,0,0,1-2.27-.248c-7.567-3.946-15.259-7.688-22.588-12.042A176.983,176.983,0,0,1,171.4,634.478c-3.964-3.113-7.26-7.143-10.57-11.007-7.482-8.731-14.69-17.7-22.191-26.412-7.233-8.4-14.7-16.608-22.039-24.919a4.072,4.072,0,0,1-.5-1.267c-.136.951-.622,2.016-.355,2.835,2.555,7.832,4.895,15.762,7.991,23.381a156.222,156.222,0,0,0,8.877,17.376q6.918,12.332,14.3,24.4c2.471,4.026,5.5,7.706,8.2,11.6a13.983,13.983,0,0,1,1.154,2.756,25.19,25.19,0,0,1-2.022-1.662c-9.521-9.589-19.637-18.674-28.366-28.938a301.168,301.168,0,0,1-25.1-34.135c-5.346-8.461-8.682-18.192-12.933-27.348a5.608,5.608,0,0,0-.817-1.038,8.227,8.227,0,0,0-.265,1.478c0,1.021.085,2.041.135,3.062a13.509,13.509,0,0,1-1.9-2.9c-8.374-24.979-14.972-50.313-16.142-76.836-.365-8.292-2.405-16.54-2.421-24.811a189.619,189.619,0,0,1,2.238-29.359,274.065,274.065,0,0,1,6.929-30.76c1.991-7.2,5.2-14.065,7.668-21.15,1.818-5.226,2.6-10.934,5.113-15.766a118.077,118.077,0,0,1,12.6-19.461c10.455-13,21.18-25.815,32.364-38.192,7.46-8.255,16.4-15.18,23.748-23.525,6.19-7.035,12.293-14.676,16.167-23.093,5.479-11.9,8.816-24.79,13.175-37.219,3.8-10.846,7.763-21.636,11.629-32.459,1.468-4.109,2.868-8.243,4.3-12.364.121-.349.266-.69.4-1.035.2.113.486.178.576.348.37.7.68,1.425,1.013,2.142l4.24-3.79c-1.135-.773-2.25-1.575-3.406-2.315-7.028-4.493-13.928-9.207-21.133-13.4-8.636-5.022-6.231-14.435-8.93-21.737-2.225-6.02-3-12.7-3.568-19.158a20.436,20.436,0,0,1,2.244-10.477c.383-.759,5.669.182,8.186,1.4,10.868,5.275,21.566,10.905,32.264,16.522,1.224.642,2.063,2.015,3.081,3.05a24.562,24.562,0,0,1-3.34-.849c-2.78-1.123-5.509-2.372-8.264-3.559a18.012,18.012,0,0,0-1.764-.639,3.056,3.056,0,0,0-.276.526c.545.28,1.092.556,1.634.841,4.75,2.5,9.586,4.846,14.159,7.631.755.46.335,2.823.489,4.3.55,5.309,2.107,10.744,1.443,15.894-1.054,8.168,6.746,10.2,9.386,15.716,1.628,3.4,4.725,6.126,7.312,9.023,1.585,1.775,3.5,3.253,5.179,4.95a66.715,66.715,0,0,1,4.975,5.4c6.271,7.923,12.536,15.854,18.65,23.9,3.282,4.317,6.025,9.052,9.41,13.278,9.653,12.054,19.633,23.846,29.251,35.927,8.356,10.5,16.376,21.26,24.631,31.838a2.407,2.407,0,0,0,2.339.228c4.3-4.114,8.238-8.644,12.75-12.5,7.15-6.113,14.584-11.906,22.054-17.63a135.939,135.939,0,0,1,14.424-10c5.756-3.33,11.846-6.107,17.9-8.886,8.922-4.095,17.772-8.438,26.963-11.834,10.793-3.989,21.71-8.235,32.954-10.253,12.941-2.322,26.3-2.33,39.472-3.343-3.231.579-6.448,1.251-9.694,1.721-8.937,1.293-18.477,1-26.646,4.214-6.649,2.615-12,9.052-17.294,14.423-4.291,4.357-8.763,9.15-11.173,14.623-6.014,13.651-7.494,28.257-6.018,43.119a3.842,3.842,0,0,0,.272.81,3.5,3.5,0,0,0,.619-.877q5.5-17.922,11-35.847c.142-.458.685-.791,1.041-1.182a7.155,7.155,0,0,1,.823,1.531c3.521,13.732,6.989,27.477,10.553,41.2a16.18,16.18,0,0,0,1.863,3.444,35.091,35.091,0,0,1-.189-3.973,41.443,41.443,0,0,1,.71-6.169,17.676,17.676,0,0,1,1.614-3.573q1.649,1.166,3.3,2.329c.7.491,1.4.976,2.1,1.463a15.183,15.183,0,0,0,.031-1.953c-1.3-11.867-2.491-23.746-3.954-35.592-1.245-10.085,3.451-17.835,9.354-25.176a32.86,32.86,0,0,1,3.377-3.189,49.887,49.887,0,0,1-1.268,4.905c-2.376,6.5-5.511,12.822-7.051,19.512-1.069,4.646-.2,9.8.172,14.7.672,8.887,1.553,17.759,2.5,26.621a34.694,34.694,0,0,0,1.607,5.742c-2.075-1.127-4.158-2.24-6.219-3.393a12.124,12.124,0,0,1-1.114-.922c-.6-.446-1.231-.86-1.848-1.287a17.712,17.712,0,0,0-.243,2.327c.135,5.819.332,11.637.434,17.456a5.6,5.6,0,0,1-.72,1.887c-.445-.351-1.15-.615-1.3-1.063-4.566-13.95-9.074-27.92-13.618-41.878a7.71,7.71,0,0,0-.966-1.569c-.177.228-.45.43-.516.686-2.272,8.806-5.389,17.507-6.529,26.459a82.032,82.032,0,0,0,.4,25.542c1.429,7.391,5.276,14.49,8.952,21.228,4.688,8.593,10.208,16.738,15.5,24.992,4.029,6.285,8.305,12.412,12.351,18.686.616.954.263,2.562.919,3.457,1.329,1.812,3.833,3.09,4.45,5.034,1.948,6.133,3.266,12.467,4.788,18.733.382,1.575,1.119,3.3.8,4.756-.5,2.3-1.751,4.43-2.684,6.633-1.2-1.623-2.436-3.223-3.6-4.872-3.715-5.255-6.744-11.194-11.242-15.655-9.115-9.04-19.014-17.29-28.623-25.829-.322-.286-1-.177-1.5-.252a3.579,3.579,0,0,0,.475,1.245c4.068,4.254,7.859,8.841,12.327,12.63,9.525,8.076,17.977,16.924,23.394,28.331a7.159,7.159,0,0,1,.3,2.088,10.5,10.5,0,0,1-1.732-1.488c-2.082-2.756-3.73-5.949-6.2-8.283-8.144-7.7-16.684-14.987-24.85-22.667-4.346-4.088-8.291-8.611-12.312-13.032-2.807-3.085-5.823-6.082-8.056-9.561-3.423-5.332-6.244-11.05-9.338-16.595a26.523,26.523,0,0,0-2.781-4.545c-.42-.488-2.422-.511-2.649-.126-2.379,4.037-4.5,8.226-6.787,12.318-1.268,2.267-3.656,4.336-3.886,6.658-.377,3.81-.292,8.132,1.18,11.559,2.981,6.941,7.015,13.43,10.651,20.086.133.244.634.287.964.424-.013-.445-.028-.89-.037-1.334-.242-11.683-.5-23.366-.675-35.05-.006-.409.739-.829,1.134-1.245.31.427.875.845.889,1.281.143,4.6-.325,9.279.391,13.777,1.288,8.095,1.122,17.564,5.424,23.791,8.26,11.957,17.628,23.4,30.894,31.123,8.544,4.972,15.634,12.435,23.408,18.742a13.465,13.465,0,0,0,2.479,1.282c.347-.746.648-1.519,1.049-2.234,1.077-1.917,2.158-3.834,3.309-5.707,2.416-3.93,4.922-7.805,7.287-11.765a12.9,12.9,0,0,0,.919-3.039c.81.826,1.608,1.664,2.433,2.473.8.781,1.613,2.186,2.435,2.2,7.4.09,14.806-.016,22.208-.175,3.412-.073,7.575,1.5,9.012-3.654.105-.377.89-.566,1.358-.842.243.532.468,1.073.732,1.6,1.744,3.441,3.4,6.929,5.281,10.3,1.073,1.927,2.676,3.562,3.729,5.5,1.821,3.346,2.515,7.756,7.545,2.19,4.048-4.48,9.381-7.849,14.339-11.44,3.616-2.62,8.042-4.276,11.244-7.28,7.212-6.768,14.467-13.649,20.593-21.366,4.515-5.688,8.746-12.415,10.426-19.329,1.947-8.012.942-16.736,1.288-25.148a7.623,7.623,0,0,1,.881-2.263c.4.413,1.143.831,1.136,1.238-.175,11.678-.426,23.356-.667,35.034-.01.448-.04.895-.061,1.342.289-.058.747-.02.842-.188,3.611-6.408,8.418-12.489,10.356-19.376,1.395-4.953,4.4-11.317-1.546-16.754-2.285-2.088-2-6.769-3.569-9.934-1.073-2.169-3.292-3.783-5.083-5.561-.139-.138-1.164.255-1.4.635-1.143,1.855-2,3.9-3.242,5.679-7.984,11.458-15.67,23.154-24.241,34.159-3.972,5.1-9.916,8.618-14.608,13.217-7.428,7.28-14.552,14.87-21.821,22.314a10.491,10.491,0,0,1-1.472,1.069c.008-.566-.212-1.294.057-1.673,5.053-7.1,9.674-14.579,15.394-21.1,6.23-7.1,13.5-13.288,20.282-19.907a5.278,5.278,0,0,0,.766-1.626c-.568.139-1.3.1-1.678.444-6.634,5.99-13.671,11.615-19.714,18.157-8,8.66-15.21,18.048-22.783,27.1-.242.29-.738.37-1.115.548-.66-2.879-1.85-5.762-1.824-8.634.023-2.6,1.481-5.166,2.113-7.793,1.2-4.979,1.932-10.1,3.542-14.932.6-1.815,3.566-2.727,4.629-4.535,1.374-2.336,1.425-5.489,2.911-7.711,6.691-10.009,14.4-19.4,20.388-29.8,7.009-12.178,15.084-24.275,14.935-39.245-.067-6.734.069-13.6-1.168-20.159-1.342-7.12-4.18-13.958-6.348-20.924-.212-.681-.3-1.4-.442-2.1a11.773,11.773,0,0,0-.965,2.317c-.719,3.845-.814,7.9-2.113,11.525-3.488,9.734-7.468,19.293-11.29,28.907a9.593,9.593,0,0,1-1.27,1.82c-.329-.736-.948-1.474-.94-2.206.056-5.01.27-10.019.374-15.029.031-1.5-.123-3-.193-4.506-1.119.839-2.217,1.705-3.361,2.509-1.323.93-2.646,1.875-4.051,2.666a5.444,5.444,0,0,1-1.946.263c.134-.606.267-1.212.4-1.817,1.008-4.444,2.41-8.842,2.932-13.342a179.8,179.8,0,0,0,1.142-19.369c.04-5.59.223-11.387-1.117-16.726-1.544-6.15-4.713-11.888-7.108-17.833a6.776,6.776,0,0,1-.089-2.231,7.588,7.588,0,0,1,1.743,1.1c7.862,8.724,12.561,18.739,11.286,30.709-1.1,10.351-2.8,20.638-4.2,30.958a23.616,23.616,0,0,0-.019,3.16c.879-.765,1.706-1.6,2.651-2.274.847-.6,2.1-1.627,2.678-1.368a3.7,3.7,0,0,1,1.653,2.7c.271,3.166.213,6.36.306,9.542a8.63,8.63,0,0,0,.243,1.325c.355-.4.9-.755,1.036-1.222q5.46-19.519,10.83-39.064c.534-1.94.9-3.927,1.343-5.892.64,1.9,1.3,3.783,1.917,5.687q5.087,15.781,10.167,31.566c.081.25.376.432.572.646a2.824,2.824,0,0,0,.276-.8c.124-4.931.51-9.876.28-14.791-.591-12.653-2.413-25.429-10.9-35.173-8.042-9.228-13.65-22.094-28.794-22.958-6.315-.36-12.563-1.928-18.836-2.981C510.287,219.758,506.117,219,501.943,218.259Zm8.8,222.163c3.715,3.073,7.417,6.164,11.167,9.2a5.292,5.292,0,0,0,1.731.573c.01-.2.1-.444.018-.581-3.011-4.887-5.786-10.121-12.939-9.158H490.252c-6.386-.709-9.7,3.13-12.174,8.219-.247.508-.5,1.014-.746,1.52a5.316,5.316,0,0,0,1.731-.573c3.75-3.032,7.451-6.123,11.167-9.2A22.9,22.9,0,0,0,510.747,440.422ZM243.687,189.774c-5.5-8.219-12.175-15.657-18.58-23.24-.533-.632-3.1-.6-3.7.06-3.029,3.317-5.8,6.881-8.506,10.477-4.3,5.712-9.156,11.153-12.491,17.4-2.931,5.487-4.135,11.905-6.033,17.933-2.635,8.373-5.007,16.836-7.856,25.135-3.491,10.17-6.663,20.547-11.306,30.193-3.123,6.486-8.159,12.216-13.043,17.652-9.111,10.142-18.846,19.721-28.115,29.726-8.683,9.374-18.435,18.131-25.29,28.729-8.406,13-15.078,27.3-21,41.656-4.283,10.38-6.433,21.7-8.956,32.731-2.034,8.89-4.191,17.937-4.563,26.986-.971,23.644-.746,47.35,5.012,70.512,2.991,12.03,6.056,24.194,10.774,35.6,5.278,12.76,12.42,24.753,18.869,37.019.992,1.886,2.617,3.439,3.949,5.146a37.632,37.632,0,0,1-1.374-6.156c-.473-8.315-7.357-15.211-4.645-24.5.923-3.161-1.908-7.431-3.066-11.182-.364-1.179-.867-2.314-1.306-3.47,1.237-.388,3.043-1.491,3.611-1.039a38.021,38.021,0,0,1,6.366,6.407c2.716,3.514,4.847,7.491,7.646,10.929,8.275,10.165,16.429,20.461,25.272,30.119,5.759,6.29,12.628,11.565,19.036,17.254.346.308,1.025.241,1.549.349a8.854,8.854,0,0,0-.639-1.409c-1.989-2.937-4.375-5.669-5.947-8.811-5.585-11.166-10.848-22.494-16.383-33.686-.542-1.1-2.894-1.543-3.077-2.537-1.687-9.135-3.1-18.32-4.555-27.5-3.76-23.782-3.585-47.558,2.178-70.934,3.264-13.236,8.338-26.026,12.568-39.026a4.042,4.042,0,0,0-.077-1.411c-.35.262-.855.448-1.026.8-1.9,3.872-3.728,7.779-5.632,11.649a6.992,6.992,0,0,1-1.274,1.418c-.024-.566-.264-1.242-.039-1.68q9.166-17.909,18.419-35.774c.563-1.092,1.095-2.2,1.642-3.3-.8.805-1.558,1.664-2.419,2.4-.983.841-2.059,1.571-3.094,2.349.51-1.25.731-2.755,1.573-3.712,10.192-11.578,20.7-22.887,30.667-34.651,8.466-9.989,16.118-20.666,24.531-30.7,12.534-14.952,18.755-33.02,25.906-50.668a38.979,38.979,0,0,1,2.624-4.617c-.322,1.559-.58,3.134-.991,4.669a25.32,25.32,0,0,1-1.151,2.906c-.212.52-.429,1.037-.644,1.556.49-.383,1.251-.668,1.431-1.164,4.014-11.074,7.885-22.2,11.949-33.254,3.466-9.427,7.29-18.724,10.636-28.191,1.142-3.232,2.982-7.847,1.619-10.033-4.284-6.873-9.937-12.894-15.075-19.232m492.484,12.268c-1.926,2.129-5.423,4.781-5.1,6.657a118.2,118.2,0,0,0,5.868,20.848c2.763,7.423,6.594,14.444,9.476,21.829,3.284,8.416,5.993,17.055,9.066,25.556.389,1.076,1.469,1.9,2.228,2.844-.392-.91-.819-1.807-1.168-2.733-.485-1.287-.977-2.579-1.339-3.9a15.692,15.692,0,0,1-.282-2.5c.649.609,1.593,1.1,1.9,1.845,3.816,9.245,6.661,19.016,11.485,27.69,7.821,14.065,16.144,28,25.753,40.871,6.689,8.959,16.212,15.746,23.865,24.059,6.957,7.556,13.16,15.815,19.551,23.879,1.331,1.679,2.026,3.863,3.014,5.814-1.583-1.4-3.162-2.805-4.751-4.2a7.069,7.069,0,0,0-.741-.507c-.009.437-.184.965,0,1.3,2.3,4.2,4.738,8.317,6.957,12.554,4.408,8.42,8.711,16.895,13,25.375.21.413-.086,1.082-.147,1.632a6.19,6.19,0,0,1-1.168-1.284c-1.925-3.948-3.782-7.93-5.708-11.877-.153-.313-.673-.447-1.023-.664a3.16,3.16,0,0,0-.081,1.189c2.7,7.681,5.921,15.218,8.045,23.053,3.232,11.928,6.7,23.938,8.218,36.144,1.417,11.388.865,23.1.35,34.625-.416,9.3-2.07,18.543-3.416,29.845-.6,2.828-1.586,7.643-2.631,12.447a10.54,10.54,0,0,1-1.2,3.911c-1.038,1.426-3.04,2.227-3.866,3.718-7.514,13.572-14.864,27.235-22.253,40.876a10.471,10.471,0,0,0-.489,1.249,3.515,3.515,0,0,0,1.226-.465c10.268-9.785,20.978-19.161,30.615-29.534,7.448-8.018,13.519-17.31,20.262-25.99,2.758-3.551,5.664-6.988,8.536-10.449a.931.931,0,0,1,.9-.093c2.627,2.431,2.031,4.895.279,7.6a6.822,6.822,0,0,0-.917,3.96c.16,2.213,1.563,4.585,1.076,6.551-2.038,8.219-4.592,16.311-6.932,24.456a23.627,23.627,0,0,0-.452,2.556,14.583,14.583,0,0,0,1.929-2.263c4.316-7.813,8.874-15.512,12.77-23.532,4.837-9.954,10.573-19.8,13.3-30.375a417.4,417.4,0,0,0,10.206-53.968c2.7-22.225-.143-44.308-6.284-65.86-3.167-11.116-6.636-22.147-10.086-33.179-1.646-5.266-2.819-10.875-5.521-15.572-5.046-8.772-10.863-17.124-16.716-25.4a184.273,184.273,0,0,0-14.6-18.6c-4.938-5.359-11.086-9.59-16.145-14.853-7.512-7.816-13.981-16.7-21.9-24.038-9.8-9.075-14.35-20.758-18.69-32.641-2.925-8.008-4.872-16.372-7.3-24.564-1.933-6.522-3.762-13.082-5.953-19.518-1.884-5.534-4.328-10.875-6.319-16.376-2.323-6.419-10.225-9.032-10.765-17.049-.2-2.96-4.184-5.8-6.776-8.362-.589-.582-3.152-.273-3.8.486-4.917,5.76-9.795,11.58-14.25,17.7M405.1,437.341a29.044,29.044,0,0,1-3.543,3.253c-1.389,1.041-3.116,2.149-4.742,2.23-2.149.108-5.536-.042-6.313-1.333-3.068-5.094-5.2-10.742-7.955-16.039-.83-1.594-2.568-2.714-3.89-4.051.259,1.643.382,3.321.8,4.923,1.474,5.657,3.081,11.28,4.578,16.931,2.085,7.87,3.88,15.828,6.26,23.607,1.44,4.711,3.826,9.125,5.654,13.725,3.413,8.588,6.255,17.443,10.271,25.733,2.263,4.671,6.388,8.441,9.7,12.594.14.175.575.114.872.163a3.347,3.347,0,0,0-.014-.94c-1.871-6-3.715-12.013-5.673-17.987-.56-1.706-1.859-3.241-2.12-4.96-.559-3.684-.428-7.474-1-11.154-1.012-6.461-2.418-12.861-3.466-19.317-.18-1.1.6-2.363.93-3.55a27.428,27.428,0,0,1,1.774,3.843c2.258,7.766,3.578,15.943,6.891,23.218,2.579,5.661,7.463,10.33,11.662,15.143.774.888,4.149-.247,4.663.581,3.557,5.739,8.927,8.681,14.9,11.15a126.2,126.2,0,0,1,14.823,7.216c8.344,4.81,16.486,9.973,24.658,15.073.391.244.462,1.362.306,1.977a1.622,1.622,0,0,1-1.469.608c-1.006-.474-1.808-1.388-2.819-1.842-2.341-1.051-4.948-1.624-7.1-2.948-4.1-2.513-7.725-5.841-11.95-8.07-8.84-4.665-17.939-8.839-26.941-13.2a5.747,5.747,0,0,0-1.338-.29,10.355,10.355,0,0,1,.584,1.028c4.474,10.4,8.888,20.828,13.444,31.193a93.059,93.059,0,0,0,4.435,8.226c.178.314.785.415,1.216.521a1.168,1.168,0,0,0,.363-.76c-.775-4.035-1.659-8.05-2.357-12.1a15.93,15.93,0,0,1,.194-3.615,12.663,12.663,0,0,1,2.731,2.052c4.485,5.839,8.4,12.2,13.449,17.493,3.447,3.612,8.334,5.919,12.745,8.524,6.178,3.649,11.585,9.359,19.984,7.342,2.5-.6,5.669.729,7.808-.311a100.318,100.318,0,0,0,15.679-9.407,179.467,179.467,0,0,0,17.929-15.041c2.624-2.53,3.927-6.409,5.951-9.6.344-.542,1.305-.693,1.98-1.024.208.585.664,1.207.584,1.749-.633,4.257-1.36,8.5-2.08,12.742-.108.638-.326,1.256-.493,1.884.656-.323,1.66-.476,1.912-.994,2.183-4.485,4.262-9.022,6.311-13.571q5.033-11.169,9.984-22.374c.58-1.308,1.059-2.66,1.584-3.992-1.311.567-2.6,1.208-3.939,1.686-1.974.7-4.175.965-5.956,1.981-7.432,4.238-14.727,8.716-22.1,13.051-4.64,2.726-9.331,5.368-14.02,8.01-.584.33-1.433.28-1.9.7-.281.252-.056,1.066-.059,1.628a19,19,0,0,1-3.557-1.2,2.879,2.879,0,0,1,.467-2.284c4.672-3.477,9.151-7.383,14.262-10.067a300.452,300.452,0,0,1,30.949-14.566c5.482-2.123,6.626-8.44,13.7-9.629,10.043-1.687,10.851-13.292,14.7-20.965,2.806-5.6,2.9-12.542,4.291-18.868.153-.7.857-1.282,1.306-1.918.215.65.679,1.328.609,1.945-1.182,10.269-1.765,20.668-3.873,30.748-1.694,8.1-5.26,15.809-7.964,23.7a5.936,5.936,0,0,0-.091,1.6c.3-.1.733-.1.9-.3,3.323-4.248,7.56-8.093,9.72-12.874,4.553-10.081,8.107-20.621,11.895-31.037,2.879-7.915,8.9-14.167,9.2-23.68.291-9.1,4.16-18.072,6.4-27.115a11.849,11.849,0,0,0,.032-2.751c-.574.51-1.349.913-1.69,1.548-2.34,4.354-4.226,9-6.989,13.062-2.01,2.95-4.964,6.912-7.819,7.2-3.3.33-8.038-2.023-10.2-4.756-2.847-3.6,2.762-21.025,6.766-24.433,4.815-4.1,10.449-7.554,14.263-12.434a343.65,343.65,0,0,0,20.546-29.831c5.194-8.327,9.473-17.226,14.122-25.89a10.629,10.629,0,0,0,.63-2.226,5.68,5.68,0,0,0-1.624.949c-8.983,10.731-17.806,21.6-27.043,32.105-1.149,1.306-4.489,1.052-6.761.868-1.417-.115-2.735-1.456-4.1-2.247-.209.5-.7,1.075-.584,1.475,1.961,6.65-.68,12.089-4.742,16.933-3.587,4.277-7.683,8.124-11.378,12.317-1.283,1.455-2.781,3.328-2.894,5.092-.314,4.911.44,9.9.027,14.791-.37,4.385-1.676,8.7-2.675,13.021-.5,2.173-.584,4.961-1.978,6.323-6.6,6.444-13.579,12.5-20.449,18.666a9.838,9.838,0,0,1-1.866,1.057c.926-.028,1.853-.105,2.775-.068.891.035,1.777.188,2.664.289-.735.621-1.453,1.751-2.209,1.777-3.741.128-7.5.063-11.234-.18-.756-.049-1.443-1.163-2.163-1.785a12.073,12.073,0,0,1,1.864-1.37c5-2.39,11.087-3.654,14.78-7.334A87.651,87.651,0,0,0,586.948,436.4c2.483-4.524,2.853-10.283,3.76-15.558.382-2.223-.3-4.628-.493-6.95-.788,2.43-1.4,4.934-2.4,7.278-4.292,10.14-8.54,20.305-13.224,30.265-.7,1.478-3.62,1.922-5.546,2.773-.125.056-.778-.73-.759-.752,1.169-1.339,2.479-2.563,3.572-3.958q3.843-4.9,7.484-9.958c.327-.453.119-1.292.159-1.953-.492.38-.976.77-1.477,1.138-6.37,4.678-12.665,9.466-19.167,13.954-1.818,1.255-4.25,1.621-6.4,2.394,2.507.061,5.02.049,7.519.224a8.12,8.12,0,0,1,2.315.937c-.483.595-.957,1.7-1.452,1.707-5.717.107-11.438.061-17.158,0-.33,0-.628-.6-.987-.663-1.135-.2-2.292-.284-3.441-.412,1.3,1.1,2.57,2.233,3.9,3.294.291.232.891.1,1.145.349,1.229,1.193,2.833,2.286,3.4,3.762.332.861-1.394,2.326-1.57,3.6-.8,5.785,3.7,10.039,8.705,8.4a24.667,24.667,0,0,1,3.831-1.263c.485-.073,1.228.777,1.622,1.362.128.19-.367,1.047-.767,1.305-2.687,1.741-5.451,3.363-8.1,5.154-.247.167.139,1.237.193,1.891.207,2.516,1.533,5.953.38,7.378-3.383,4.18-7.694,7.632-11.833,11.143-.418.354-2.155-.811-3.252-1.328-.186-.088-.236-.467-.348-.711a7.2,7.2,0,0,1-.72,1.22c-1.76,1.984-3.668,5.713-5.313,5.606-7.687-.5-14.23,1.8-21,5.086-4.8,2.331-8.71,4.133-7.566,10.294a8.083,8.083,0,0,0,.6,1.5,3.594,3.594,0,0,0,.918-.535c3.53-3.859,6.916-7.86,10.644-11.514.876-.858,2.887-.568,4.383-.744.064-.007.4.759.275.927-2.032,2.809-4,5.683-6.216,8.34-4.405,5.271-11.39,8.985-9.983,17.622.338,2.077-.048,4.272-.1,6.412,1.39-1.283,2.74-2.613,4.187-3.829a5.206,5.206,0,0,1,2.313-1.284,9.562,9.562,0,0,1,2.825.392,10.847,10.847,0,0,1-1.054,2.445q-4.331,5.682-8.822,11.24a6.612,6.612,0,0,1-1.989,1.413q-5.578-6.827-10.924-13.84c-.2-.266.144-1.274.524-1.581.453-.368,1.469-.693,1.8-.446,1.788,1.326,3.417,2.863,5.148,4.269a16.007,16.007,0,0,0,2.016,1.217,8.7,8.7,0,0,0,.194-1.591c-.395-6.621.135-13.254-6.09-18.308-3.632-2.948-5.91-7.557-8.825-11.4a19.965,19.965,0,0,0-1.664-1.732c.925-.1,2.248-.656,2.714-.242,4.227,3.757,8.31,7.678,12.418,11.569a8.959,8.959,0,0,1,.947,1.268c.251-.286.777-.7.713-.838-1.4-2.924,2.5-7.446-3.554-9.165-7.38-2.094-13.466-7.857-22.032-7.144-2.462.2-5.239-2.493-7.728-4.084-.667-.426-.806-1.677-1.187-2.55-.1.815.085,1.888-.366,2.371a2.452,2.452,0,0,1-2.291.4,15.894,15.894,0,0,1-4.6-3.092c-3.668-4.045-9.776-6.663-8.586-13.727.24-1.424,1.545-3.531,1.036-4.067a58.878,58.878,0,0,0-7.028-5.7c-.614-.472-1.285-.869-1.93-1.3,1.119-.29,2.585-1.184,3.3-.772,4.591,2.638,8.411,2.868,10.3-2.967a37.123,37.123,0,0,0,1.082-7.645c.092-.908-.581-2.356-.183-2.687,1.381-1.145,3.183-1.772,4.617-2.868a10.7,10.7,0,0,0,1.89-2.717,9.189,9.189,0,0,0-2.109.124c-3.957,1.16-7.86,3.167-11.848,3.339-3.007.13-6.114-2.062-9.176-3.221q3.256-.425,6.513-.849a13.975,13.975,0,0,0,1.93-.257,9.611,9.611,0,0,0,1.57-.739c-.5-.375-.977-1.043-1.5-1.082-10.669-.807-17.02-8.491-24.1-15.026-.454-.419-.981-.759-1.474-1.136.044.662-.168,1.527.171,1.955,2.858,3.6,5.844,7.1,8.729,10.672.86,1.066,1.523,2.29,2.277,3.441a5.65,5.65,0,0,1-2.122.157c-8.294-2.885-9.951-10.823-12.643-17.6-2.74-6.894-4.285-14.261-6.4-21.408-.107-.365-.628-.607-.956-.906a4.2,4.2,0,0,0-.1,1.137c1.5,7.78,2.658,15.648,4.626,23.309,2.693,10.482,10.371,16.962,19.445,21.941,3.412,1.872,7.054,3.328,10.591,4.973l-11.951,1.976c-.08.013-.181.08-.234.051-1.126-.612-2.247-1.235-3.369-1.855.984-.17,1.962-.381,2.952-.5.557-.064,1.134.058,1.7.035.165-.007.321-.225.48-.346-3.1-2.281-6.152-4.624-9.3-6.83-8.48-5.938-16.32-12.248-15.445-24.165.039-.531-.332-1.079-.4-1.633-.542-4.28-.95-8.58-1.609-12.842-.736-4.763,3.543-10.938-3.852-13.9a8.482,8.482,0,0,1-3.377-2.064,91.9,91.9,0,0,1-6.373-8.537c-3.314-5.074-7.594-9.894-5.31-16.8.233-.7-.282-1.653-.451-2.489a10.9,10.9,0,0,0-2.095.889c-2.608,1.806-5.173,5.659-8.47,1.746-8.582-10.186-16.792-20.686-25.213-31.009a32.772,32.772,0,0,0-3.739-3.388c.514,1.456,1.037,2.908,1.539,4.368a8.647,8.647,0,0,0,.494,1.627q7.177,11.982,14.411,23.931c3.017,4.986,5.9,10.064,9.156,14.892,3.278,4.864,6.16,10.438,10.587,14C395.778,410.906,406.4,418.88,405.1,437.341Zm315.977-36.808-1.265-.209c-.842-4.51-1.177-9.192-2.643-13.49-2.4-7.048-5.535-13.849-8.387-20.744a9.065,9.065,0,0,0-.992-1.5,8.771,8.771,0,0,0-.823,1.67c-1.038,4.116-2.47,8.21-2.8,12.388-.125,1.57,4.018,3.1-1.343,3.658-2.418.253-4.239,4.922-6.587,7.34-7.146,7.36-14.268,14.753-21.676,21.844-8.651,8.281-18.062,15.816-26.25,24.516-5.672,6.027-11.187,12.9-14.38,20.414a421.85,421.85,0,0,0-15.7,44.819c-3.413,11.481-7.286,23.4-7.367,35.153-.105,15.16,2.442,30.547,5.7,45.43,1.544,7.044,7.443,13.119,11.295,19.676,5.11,8.7,10.147,17.439,15.219,26.16a2.018,2.018,0,0,0,.279.308,5.8,5.8,0,0,0,.212-.865c.438-4.918.662-9.864,1.336-14.748,1.833-13.287,2.508-26.932,6.165-39.714,3.965-13.858,10.093-27.246,16.6-40.17,3.907-7.757,10.4-14.2,15.639-21.3,4.285-5.814,8.865-11.477,12.515-17.677a172.678,172.678,0,0,0,11.3-22.568c3.892-9.6,8.089-19.34,9.932-29.426C719.522,428.05,719.841,414.208,721.078,400.533ZM293.924,365.884a6.341,6.341,0,0,0-.642-1.27c-.261.149-.651.232-.763.456-1.414,2.8-2.907,5.577-4.152,8.456A87.3,87.3,0,0,0,281.188,417c1.22,12.518,3.017,25.157,6.376,37.237a130.592,130.592,0,0,0,12.961,30.333c7.334,12.6,16.276,24.27,24.556,36.319,3.911,5.693,8.6,10.983,11.659,17.1,3.994,7.992,6.878,16.562,9.939,24.992,2.889,7.956,6.373,15.883,7.807,24.134,1.717,9.878,1.537,20.085,2.178,30.15l-.4.029c.377,3.3.75,6.594,1.14,9.89a3.925,3.925,0,0,0,.281.8c.071-.135.138-.272.214-.4,3.5-6.1,7.075-12.158,10.475-18.312,5.807-10.509,13.226-20.535,16.777-31.772,3.814-12.071,5.051-25.28,5.321-38.037.188-8.929-3.127-17.933-4.893-26.9-1.269-6.439-2.075-13.022-3.981-19.267-2.04-6.685-5.047-13.083-7.776-19.545-3.184-7.539-5.563-15.652-10.035-22.352a158.955,158.955,0,0,0-20.139-23.973c-8.541-8.514-18.346-15.747-27.075-24.088-5.993-5.726-11.077-12.4-16.591-18.63a17.6,17.6,0,0,0-2.946-2.813c-.341-.24-1.26.344-1.915.551.32-1,.583-2.026.99-2.99m102.8,196.815c.741-1.98,1-2.664,1.254-3.349a10.829,10.829,0,0,1,2.059,1.35c.713.735,1.071,1.861,1.851,2.478,6.191,4.894,12.35,9.839,18.708,14.509,7.467,5.486,15.025,10.862,22.733,16,5.448,3.63,11.405,6.506,16.782,10.229a167.5,167.5,0,0,1,15.642,12.361c7.239,6.412,14.144,13.2,21.258,19.753.487.449,1.9.7,2.248.369,2.96-2.777,5.7-5.788,8.648-8.58,5.287-5.01,10.259-10.486,16.112-14.737,9.324-6.771,19.338-12.583,28.914-19.019,7.15-4.8,14.017-10.026,21.116-14.907,2.691-1.85,6.051-2.843,8.456-4.964,5.166-4.554,9.9-9.6,14.852-14.4a1.318,1.318,0,0,1,1.281-.106,2.972,2.972,0,0,1,.531,1.43c.149.634.012,1.65.377,1.867,2.824,1.68,5.728,3.228,8.64,4.757a1.471,1.471,0,0,0,1.322-.027,1.426,1.426,0,0,0,.142-1.287c-1.943-4.785-4.339-9.426-5.84-14.341-3.8-12.442-3.227-25.13-1.287-37.82.2-1.332.329-2.675.491-4.013-1.46.857-2.972,1.64-4.36,2.6-.843.583-1.45,1.5-2.242,2.165-4.116,3.477-8.436,6.734-12.347,10.426-5.526,5.217-10.426,11.134-16.188,16.057-9.265,7.919-19.077,15.194-28.539,22.888-5.8,4.719-11.223,9.917-17.108,14.525a239.467,239.467,0,0,1-20.091,14.37c-1.893,1.188-5.743,1.1-7.724-.061-4.756-2.784-8.918-6.575-13.354-9.916-6.479-4.879-13.14-9.531-19.441-14.63-6.533-5.286-12.64-11.093-19.1-16.479-5.839-4.872-12.116-9.235-17.79-14.284-4.65-4.138-8.484-9.183-13.064-13.41-5.251-4.847-10.911-9.253-16.444-13.789a2.183,2.183,0,0,0-1.867-.2c-.294.118-.43,1.1-.333,1.639.32,1.777,1.07,3.52,1.135,5.295.319,8.67,1.276,17.428.413,25.994-.643,6.385-3.677,12.538-5.733,18.766a42.891,42.891,0,0,1-2.056,4.488,18.138,18.138,0,0,0,4.351-.847A60.078,60.078,0,0,0,398.915,576.272Zm98.067,109.4-1.119.979a22.727,22.727,0,0,0,3.678,3.036,2.89,2.89,0,0,0,2.621-.654c3.046-3.225,5.592-7,8.932-9.856,9.665-8.271,19.643-16.175,29.467-24.261,10.355-8.523,20.707-17.051,30.966-25.689,1.247-1.05,1.585-3.292,2.891-4.144,8.241-5.378,16.618-10.55,25-15.717,2.218-1.368,5.676-4.136,6.731-3.448C615.7,612.149,624.86,619,634.107,625.7a32.317,32.317,0,0,1,2.878,2.648,20.329,20.329,0,0,0-1.518-4.483c-2.792-4.49-5.968-8.746-8.676-13.283-5.149-8.624-5.813-20.447-17.92-24.067-2.543-.761-4.527-3.262-6.928-4.695a3.629,3.629,0,0,0-3.184-.158c-3.45,2.379-6.725,5.014-10.036,7.592-8.569,6.672-16.968,13.577-25.741,19.969-5.737,4.18-12.143,7.431-18,11.466-4.657,3.212-8.945,6.962-13.369,10.508-5.347,4.285-10.47,8.883-16.056,12.827-4.549,3.211-9.55,7.655-14.513,7.875-4.853.215-10.229-3.743-14.8-6.747-5.513-3.623-10.467-8.112-15.573-12.334-6.182-5.112-12.027-10.669-18.475-15.413-5.467-4.022-11.831-6.816-17.353-10.775-7.919-5.68-15.085-12.465-23.253-17.721-4.694-3.021-8.635-11.9-16.691-4.145-3.007,2.9-8.7,3.525-10.8,6.736-4.922,7.517-8.288,16.037-12.538,24.016-2.165,4.066-4.887,7.834-7.331,11.753a3.231,3.231,0,0,0-.215,1.089c.3-.239.6-.479.906-.716,6.775-5.3,13.312-10.95,20.409-15.779,4.6-3.132,9.1-10.573,15.874-2.784a8,8,0,0,0,1.932,1.943,157.811,157.811,0,0,1,31.741,22.536c7.121,6.5,14.654,12.563,22.226,18.54,4.8,3.789,10.215,6.8,14.98,10.628,7.52,6.037,14.768,12.419,22.024,18.776C495.342,682.579,496.039,684.265,496.982,685.67ZM630.649,327.815c-1.383-4.536-2.909-9.557-4.462-14.57-.078-.253-.386-.435-.587-.65a5.724,5.724,0,0,0-.173,1.042c.039,2.745,1.159,6.115-.028,8.126-4.771,8.076-10.179,15.784-15.525,23.507-1.393,2.012-5.144,3.949-4.861,5.3,1.589,7.607,3.863,15.2,10.2,20.467,1.876,1.561,5.863,3.781,6.387,3.248,3.215-3.274,5.4-7.534,8.511-10.941,8.9-9.763,18.071-19.282,27.163-28.87a10.819,10.819,0,0,1,1.966-1.331c.087,1.236.6,2.643.187,3.678-2.215,5.533-4.5,11.049-7.071,16.426-3.157,6.617-6.337,13.252-10.016,19.583A186.4,186.4,0,0,1,630,391.628c-4.181,5.53-8.511,11.259-13.876,15.512-9.007,7.138-17.429,14.224-17.85,26.776-.042,1.261,1.5,3.225,2.769,3.739,2.3.935,6.529,2.19,7.192,1.286,5.83-7.953,10.9-16.457,16.573-24.537,1.168-1.665,3.89-2.24,5.895-3.318a14.765,14.765,0,0,1-.532,3.344c-3.561,8.79-7.38,17.482-10.663,26.372-.6,1.623.881,4.015,1.4,6.052.4-.124.918-.128,1.184-.389,4.187-4.1,8-8.683,12.593-12.248,5.452-4.229,11.7-7.42,17.349-11.412,2.145-1.515,3.311-4.4,5.436-5.961,3.161-2.324,7.333-3.45,10.1-6.1,8.332-8.006,16.152-16.541,24.245-24.8,7.282-7.43,10.387-16.184,8.869-26.54a7,7,0,0,1,.469-2.284c.273.692.515,1.4.829,2.072a15.7,15.7,0,0,0,.847,1.424c.324-.421,1.02-1.03.916-1.233-1.728-3.409-3.19-7.038-5.437-10.082-5.2-7.041-10.5-14.047-16.321-20.572-3.927-4.406-9.571-7.395-13.042-12.062-3.857-5.184-6.109-11.56-9.085-17.4a16.508,16.508,0,0,0-1.255-1.832c-.233.263-.6.49-.681.794-1.5,5.451-2.289,11.219-4.626,16.276-2.108,4.559-6.163,8.175-8.885,12.5-4.356,6.93-8.521,14-12.3,21.254-.9,1.725.052,4.414.152,6.66-.561-2.3-1.128-4.6-1.676-6.9-.122-.513-.172-1.043-.254-1.565a11.3,11.3,0,0,1-.537,1.707c-.575,1.172-1.229,2.305-1.851,3.453a10.458,10.458,0,0,1-.6-3.266C628.32,341.766,629.441,335.211,630.649,327.815Zm-256.972,20.82a3.032,3.032,0,0,1,.021,1.562c-.12.3-1.658.434-1.712.3-.533-1.316-.891-2.7-1.3-4.07-.243,1.633-.5,3.265-.721,4.9a13.673,13.673,0,0,1-.195,2.145,5.67,5.67,0,0,1-1.011,1.444c-.1-.534-.2-1.066-.284-1.6-.771-4.743-.243-10.287-2.576-14.066-5.123-8.3-12.238-15.362-17.463-23.611-2.982-4.707-3.856-10.753-5.652-16.205a14.442,14.442,0,0,1-.368-2.016,11.737,11.737,0,0,0-1.3,1.8c-2.257,4.773-4.078,9.809-6.84,14.264-1.547,2.494-4.857,3.82-6.964,6.058-3.888,4.13-7.61,8.437-11.159,12.863q-9.663,12.051-18.967,24.388c-.546.722.007,2.305.147,3.477.017.136.855.386.982.257a4.772,4.772,0,0,0,.7-1.3q.5-1.033,1-2.072c.145.841.308,1.678.434,2.521.979,6.585.409,13.972,3.31,19.557,3.748,7.218,9.725,13.57,15.726,19.257,8.338,7.9,17.422,15.055,26.512,22.111,5.453,4.234,11.718,7.413,17.26,11.546,4.572,3.41,8.623,7.519,12.891,11.334,1.272,1.136,2.5,2.325,3.743,3.489.621-1.889,2.242-4.147,1.7-5.608-3.367-9.116-7.233-18.049-10.887-27.061a19.2,19.2,0,0,1-.7-3.04c1.144.224,2.839.043,3.347.735,6.4,8.711,12.441,17.7,19.135,26.172.895,1.132,4.923.04,7.414-.453,1.162-.23,3.02-1.477,3.033-2.287.157-10-4.983-17.432-12.234-23.631-3.511-3-7.935-5.164-10.791-8.652-5.466-6.676-10.145-14-15.076-21.109-3.635-5.24-7.773-10.252-10.58-15.915-4.748-9.579-8.663-19.573-12.794-29.449-.4-.957.137-2.31.3-3.471a1.807,1.807,0,0,1,1.018.081,34.655,34.655,0,0,1,5.175,4.272c9.472,11.012,18.788,22.159,28.258,33.173,1.523,1.771,5,4.572,5.152,4.422,6.535-6.392,13.477-12.685,13.906-22.774.064-1.512-.109-3.491-1.012-4.5-2.857-3.195-6.544-5.7-9.126-9.077-5.677-7.417-12.547-14.58-9.511-25.347.068-.241-.118-.554-.185-.833-.211.191-.558.348-.614.577-1.275,5.177-3.434,10.345-3.534,15.55C371.151,335.164,372.747,341.616,373.677,348.635Zm-17.526-38.019-1.948,1.27q6.077,9.246,12.191,18.468c.029.044.884-.234.962-.483,2.325-7.426,4.461-14.915,6.97-22.278.754-2.212,2.525-4.077,3.83-6.1a62.556,62.556,0,0,0,.723,6.866c.9,4.262.739,10.224,3.446,12.278,3.818,2.9,9.855,2.838,14.916,4.148a14.856,14.856,0,0,1,2.964,1.522c-1.062.516-2.2,1.59-3.174,1.455-4.71-.656-9.376-1.635-14.056-2.505-.533-.1-1.058-.24-1.587-.361.032.541-.156,1.289.129,1.593,6.755,7.2,7.8,19.812,21.162,20.954,4.1.35,7.638,5.369,11.878,6.379,7.318,1.741,14.985,2.016,22.5,2.91.692.082,1.381.194,2.072.293-.469.692-.846,1.891-1.421,2-4.265.768-8.567,1.329-12.863,1.926-.786.109-1.591.083-2.387.119a9.8,9.8,0,0,0,1.347,1.8c4.029,3.4,9.02,6.11,11.947,10.274,4.677,6.652,10.215,8.285,17.534,6.316a6,6,0,0,1,1.332-.055,6.63,6.63,0,0,1-.758,1.341c-3.236,3.5-3.33,5.55-.387,9.584a2.725,2.725,0,0,0,.423.594c3.629,2.787,6.234,10.313,12.166,2.65.2-.256.831-.177,1.261-.254-.249.662-.471,1.335-.751,1.984-.889,2.068-3.147,4.927-2.477,6.054,3.6,6.056,7.922,11.684,12.006,17.451.552.779,1.164,1.515,1.748,2.271a14.806,14.806,0,0,0-.29-3.837c-1.7-4.9-4.715-9.643-5.154-14.628-.82-9.294-6.545-15.341-11.884-21.845-6.7-8.157-13.5-16.23-20.144-24.426-3.681-4.538-7.16-9.242-10.683-13.906a12.969,12.969,0,0,1-1.129-2.326,8.252,8.252,0,0,1,2.112,1.15c2.525,2.565,4.945,5.233,7.443,7.825a7.952,7.952,0,0,0,1.557,1.007,7.44,7.44,0,0,0-.419-1.638c-2.492-4.828-5.721-9.41-7.383-14.5-2.86-8.763-4.662-17.867-7.114-26.771a11.354,11.354,0,0,0-3.067-5.523c-1.635-1.375-4.116-1.742-6.229-2.55,2.468-.433,4.96-.766,7.383-1.376a2.415,2.415,0,0,0,1.195-1.9c.018-5.786.049-11.581-.315-17.349-.065-1.037-1.827-2.1-2.984-2.9a33.347,33.347,0,0,0-4.061-2.077c1.066-.326,2.267-1.146,3.175-.9,6.03,1.656,4.888-3.511,6.04-6.311.72-1.751.389-4.037,1.349-5.569,6.246-9.962,12.732-19.772,19.052-29.689.234-.367-.437-1.312-.687-1.987-4.92,2.365-10.491,3.941-14.578,7.315-4.154,3.429-5.219,9.81-9.935,13.236a1.686,1.686,0,0,0-.295.385,60.25,60.25,0,0,0-11.269,30.618c-1.2,12.641-.645,25.339,5.3,37.12a7.827,7.827,0,0,1,.337,2.488,9.142,9.142,0,0,1-1.913-1.821c-1.316-2.307-2.932-4.583-3.6-7.093-1.691-6.35-2.9-12.827-4.372-19.238a18.82,18.82,0,0,0-1.209-2.94c-.252,1.069-.584,2.127-.728,3.211a13.054,13.054,0,0,0,.092,2.347c-.436-.981-.89-1.954-1.305-2.943-1.316-3.133-2.047-6.717-4.062-9.3-2.819-3.617-6.6-6.481-9.951-9.689-2.5-2.394-2.625-4.979.107-7.1.681-.529,3.054-.08,3.663.695,3.95,5.022,7.622,10.263,11.4,15.419a7.058,7.058,0,0,0,.989.921,7.375,7.375,0,0,0,.895-1.649c1.657-6.659,2.829-13.479,5.02-19.955,2.048-6.053,5.16-11.747,7.833-17.586.106-.232.525-.313.786-.483,2.3-1.487,4.6-2.962,6.86-4.5.191-.129.106-.666.149-1.013a5.132,5.132,0,0,0-1.152.238c-9.4,4.3-19,8.215-28.119,13.032-10.2,5.384-20.088,11.4-29.869,17.523-4.282,2.682-6.893,6.879-2.108,11.269,9.664,8.866,19.662,17.368,29.526,26.015,1.049.92,2.128,1.806,3.193,2.708-1.584-.04-3.36.379-4.721-.192-13.585-5.7-23.876-15.188-31.37-27.812-.276-.464-1.02-.649-1.546-.964-1.525,4.978-3.812,9.873-4.364,14.956C354.718,299.628,355.8,305.161,356.151,310.616Zm250.328,17.952-5.73-2.325a8.687,8.687,0,0,1,2.1-1.3c4.817-1.291,9.815-2.09,14.423-3.895a8.4,8.4,0,0,0,4.409-5.491c.708-4.058.212-8.321.3-12.5.012-.529.544-1.047.834-1.571.466.363,1.192.635,1.359,1.1,3.193,9,6.323,18.021,9.452,27.043a5.743,5.743,0,0,1,.161,1.13c.276-.129.679-.181.809-.4,3.867-6.426,11.148-11.02,10.3-20-.284-3.02,1.016-6.217.589-9.189-1.041-7.25-2.665-14.418-4.113-21.607-.015-.074-1.036-.173-1.23.051-5.706,6.562-10.79,13.811-17.224,19.546-4.769,4.25-11.266,6.573-17.052,9.643-.5.262-1.434-.314-2.167-.5a6.372,6.372,0,0,1,1.008-1.539c9.65-8.044,19.489-15.872,28.884-24.2,2.476-2.2,5.621-8.054,5.027-8.618a148,148,0,0,0-19.867-16.214c-5.777-3.831-12.382-6.449-18.717-9.395-7.993-3.717-16.083-7.225-24.142-10.8-.239-.106-.595.052-.9.088.084.29.073.719.266.849,2.264,1.535,4.586,2.988,6.824,4.561a2.749,2.749,0,0,1,.812,1.568c.3,1.292.055,2.917.757,3.877,7.053,9.651,11.7,20.155,12.116,32.282a4.448,4.448,0,0,0,.717,1.766.983.983,0,0,0,.8-.138q5.629-6.99,11.193-14.034c.629-.8,1.2-2.572,1.551-2.508a26.064,26.064,0,0,1,4.662,1.686,47.107,47.107,0,0,1-2.249,5.575c-3.944,7.121-16.086,8.632-13.785,20.115.077.387-.864.979-1.33,1.475a11.94,11.94,0,0,0,.17-1.884c-.074-1.19-.246-2.374-.414-3.555a1.187,1.187,0,0,0-.578-.029c-.309.918-.564,1.855-.848,2.782-2.778,9.075-5.543,18.155-8.384,27.21-.137.438-.946.665-1.442.99a6.108,6.108,0,0,1,.039-1.782c1.615-4.9,4.356-9.709,4.713-14.691a196.214,196.214,0,0,0-.268-28.726c-.364-4.814-2.717-9.46-4.01-14.225-1.518-5.595-6.118-9.181-8.937-13.955-4.766-8.071-10.285-15.77-20.532-17.668a7.4,7.4,0,0,0-2.581.209,2.385,2.385,0,0,0,.113,1.446c1.119,1.472,2.363,2.848,3.558,4.262,7.842,9.281,14.539,19.135,17.2,31.329.605,2.774-.042,7.81,5.869,6.192.959-.262,2.2.492,3.3.777a44.291,44.291,0,0,0-4.2,2.133c-1.113.711-2.84,1.651-2.911,2.594-.319,4.209-.64,8.539.052,12.655.388,2.309-3.884,8.174,3.844,6.773,1.32-.239,2.923,1.074,4.395,1.67a28.175,28.175,0,0,0-4.726,2.07c-1.583,1.053-3.762,2.315-4.154,3.871-2.031,8.06-2.956,16.441-5.487,24.319-1.976,6.154-5.745,11.73-8.692,17.575-.486.965-.838,2-1.252,3a24.423,24.423,0,0,0,2.315-1.826c2.5-2.49,4.93-5.047,7.427-7.538a5.105,5.105,0,0,1,1.389-.709,4.019,4.019,0,0,1-.358,1.526c-5.615,7.354-11.1,14.815-16.964,21.968-5.493,6.7-12.086,12.607-16.9,19.738-4.1,6.082-6.472,13.363-9.413,20.2-1.953,4.542-3.634,9.206-5.273,13.873a14.051,14.051,0,0,0-.244,3.825c.58-.78,1.2-1.534,1.734-2.346,3.169-4.849,5.755-10.237,9.647-14.407,3.257-3.489,3.631-5.689.189-8.757-.577-.515-.709-1.529-1.047-2.313a7.979,7.979,0,0,1,2.428,1.188c2.311,2.423,4.443,4.324,7.22.476,1.548-2.145,3.043-4.758,5.223-5.938,6.879-3.726,4.421-5.73-.926-7.745-.55-.207-.847-1.088-1.262-1.656a13.4,13.4,0,0,1,1.946.055c5.058.863,9.9,1.2,14.043-2.887,4.909-4.848,10.064-9.448,15.087-14.183a9.117,9.117,0,0,0,1.109-1.622c-.685-.058-1.373-.091-2.055-.179-4.439-.572-8.888-1.091-13.3-1.82-.539-.089-.887-1.328-1.324-2.034.631-.081,1.26-.187,1.894-.238,6.2-.506,12.59-.232,18.528-1.746,4.718-1.2,8.757-4.868,13.339-6.891,2.244-.991,6.106.231,7.4-1.2,5.854-6.481,11.063-13.545,16.454-20.438.263-.336.049-1.045.058-1.58-.461.112-.926.209-1.381.34C614.29,326.3,610.424,327.424,606.479,328.568Zm40.095,313.766c.065,1,.22,3.569.418,6.138a3.155,3.155,0,0,0,.42.948,4.961,4.961,0,0,0,1.009-.633c5.935-6.088,12.346-11.794,17.661-18.385,7.709-9.559,15.4-19.3,21.675-29.806,7.352-12.3,13.585-25.331,19.556-38.386,5.522-12.07,10.808-24.357,14.76-37,2.6-8.31,1.885-17.606,3.992-26.13,4.357-17.626,2.789-35.287,1.8-53a8.458,8.458,0,0,0-.645-2.023,13.961,13.961,0,0,0-.877,2.159c-1.662,7.3-3.243,14.622-4.975,21.907-.205.862-1.181,1.541-1.8,2.305-.2-.334-.622-.7-.575-1,1.059-6.662,2.455-13.283,3.2-19.978,1.048-9.382,1.654-18.815,2.344-28.234.062-.834-.65-1.726-1-2.591a17.478,17.478,0,0,0-.808,2.526c-1.769,10.774-2.834,21.72-5.445,32.283-2.254,9.117-5.88,17.965-9.605,26.628a158.392,158.392,0,0,1-10.863,20.492c-3.157,5.114-7.306,9.61-10.924,14.448-3.792,5.07-7.718,10.065-11.139,15.381-3.279,5.1-5.994,10.554-8.92,15.874a3.9,3.9,0,0,0-.161,1.4,3.853,3.853,0,0,0,1.1-.694c3.634-4.723,7.206-9.494,10.854-14.206,4.364-5.637,8.843-11.185,13.167-16.852,4.918-6.447,10.018-12.785,14.485-19.538,4.03-6.091,7.3-12.684,10.944-19.033a6.148,6.148,0,0,1,1.321-1.232c.21.493.663,1.025.592,1.474-.674,4.279-.623,8.917-2.367,12.725-2.483,5.418-6.158,10.325-9.59,15.266-4.108,5.914-8.341,11.755-12.809,17.4-4.192,5.3-8.944,10.149-13.116,15.459-4.58,5.832-9.335,11.647-12.983,18.056-3.484,6.123-5.842,12.925-8.332,19.566-2.7,7.2-5.984,14.381-7.218,21.867C649.385,612.09,648.333,626.471,646.574,642.334Zm-371-137.449c0-.308-.125.293.019.821,3.534,12.993,6.444,26.2,10.84,38.9a305.453,305.453,0,0,0,15.318,35.952,186.183,186.183,0,0,0,16.872,27.955c9.207,12.415,19.478,24.048,29.414,35.914,1.607,1.919,3.834,3.319,5.775,4.958.2-2.645.767-5.325.526-7.93-1.034-11.17-1.614-22.448-3.68-33.438-2.243-11.929-5.718-23.65-9.132-35.323a47.814,47.814,0,0,0-6.152-13.252q-9.1-13.413-19.234-26.115c-4.112-5.165-9.536-9.307-13.5-14.566a146.777,146.777,0,0,1-14.409-22.284c-2.882-5.761-3.708-12.555-5.382-18.908-.107-.407.383-.972.595-1.463a5.344,5.344,0,0,1,1.186,1.037c4.631,7.527,9.191,15.1,13.856,22.6a110.244,110.244,0,0,0,6.339,9.424c7.732,9.986,15.615,19.855,23.4,29.8,2.053,2.62,3.972,5.346,5.972,8.008a5.675,5.675,0,0,0,.894.783c.084-.268.311-.59.232-.795-.983-2.555-1.666-5.311-3.1-7.59-2.668-4.234-5.806-8.17-8.7-12.261-3.948-5.572-7.8-11.213-11.8-16.751-4.136-5.732-9.661-10.84-12.347-17.168a475.591,475.591,0,0,1-16.546-45.46c-2.629-8.516-3.1-17.7-4.579-26.571a18.327,18.327,0,0,0-.8-2.535c-.347.866-1.071,1.77-.985,2.591,1.641,15.79,3.378,31.57,5.089,47.353.065.6.066,1.213.1,1.82-.563-.456-1.48-.814-1.636-1.382-1.625-5.91-3.152-11.847-4.655-17.79-.6-2.37-1.07-4.773-1.6-7.161a52.152,52.152,0,0,0-1.037,6.775c-.251,9.854-.792,19.734-.341,29.563C272.746,488.308,274.383,496.159,275.569,504.885ZM513.228,709.749a3.144,3.144,0,0,0,2.065-.417c9.113-5.607,18.261-11.171,27.181-17.076,7.453-4.934,14.332-10.781,21.976-15.373,10.677-6.412,21.833-12.024,32.765-18.014a3.722,3.722,0,0,0,1.149-1.38c.046-.075-.423-.593-.733-.742-7.909-3.8-13.311-10-17.924-17.336-1.105-1.758-1.383-9.068-7.259-3.78-5.921,5.33-12.073,10.413-18.268,15.427-10.574,8.558-21.291,16.94-31.888,25.47-6.229,5.015-12.183,10.392-18.631,15.1-1.463,1.068-4.538.348-6.722-.173-1.074-.257-1.652-2.151-2.722-2.943-4.4-3.257-9.1-6.142-13.34-9.593-8.6-7-16.89-14.386-25.469-21.416-8.343-6.836-17.544-12.767-25.134-20.333-5.976-5.958-6.6-.706-9.446,2.358-5.545,5.967-11.565,11.493-17.392,17.2-.261.256-.849.564-.809.674a2.548,2.548,0,0,0,.831,1.312c7.987,4.75,16.091,9.309,23.986,14.206,14.238,8.831,28.206,18.105,42.584,26.7,6.663,3.982,13.739,7.922,21.155,9.8C497.648,711.043,504.854,709.749,513.228,709.749ZM389.179,499.464l-1.477.684c3.035,5.933,5.091,12.72,9.34,17.594,5.935,6.808,13.555,12.134,20.361,18.2,4.169,3.715,8,7.826,12.275,11.4,7.03,5.877,14.449,11.291,21.427,17.226,5.839,4.968,11,10.764,16.984,15.525,5.76,4.578,12.191,8.316,18.346,12.394,7.319,4.85,13.188,14.588,23.8,3.474,6.4-6.7,15.73-10.5,23.143-16.367,8.709-6.887,16.686-14.691,25.133-21.92,7.141-6.112,14.653-11.795,21.714-17.994,6.43-5.643,12.484-11.715,18.683-17.62,3.261-3.106,7.763-5.69,9.451-9.507,3.721-8.416,5.768-17.555,8.965-26.226,2.6-7.056,5.212-14.257,9.013-20.686,6.186-10.461,13.348-20.344,20.092-30.474.252-.379.443-.8.663-1.2a5.766,5.766,0,0,0-1.491.381c-3.991,2.278-8.175,4.3-11.869,6.993-3.262,2.377-6.855,5.02-8.747,8.413-4.7,8.424-8.613,17.293-12.639,26.077-4.077,8.892-7.967,17.871-11.819,26.864-1.551,3.62-1.93,8.111-4.344,10.911-4.446,5.157-9.977,9.386-15.123,13.926a13.257,13.257,0,0,1-2.963,1.511c-.179-1.147-.766-2.415-.465-3.418,1.223-4.084,2.732-8.081,4.094-12.125a5.827,5.827,0,0,0,.086-1.566,5.667,5.667,0,0,0-.8.652q-7.383,8.572-14.738,17.17c-1.47,1.728-3.96,3.492-4.057,5.34-.651,12.42-8.156,20.639-16.564,28.389-.71.655-1.914.775-2.888,1.145-.294-1.075-.95-2.2-.812-3.213.388-2.855,1.1-5.667,1.691-8.494.158-.761.339-1.517.509-2.275-.554.7-1.054,1.445-1.672,2.078-4.724,4.84-8.962,10.353-14.348,14.3-6.03,4.414-13.338,7.041-19.656,11.117-5.31,3.426-9.827,5-15.279.294a42.134,42.134,0,0,0-10.3-5.974c-8.792-3.961-16.881-8.755-22.575-16.82-1.171-1.659-2.307-3.342-3.46-5.013.527,1.821,1.166,3.618,1.549,5.469a33.625,33.625,0,0,1,.727,5.76c.028.91-.328,2.3-.953,2.626a3.022,3.022,0,0,1-2.642-.806c-3.042-3.114-6.325-6.107-8.762-9.664a86.823,86.823,0,0,1-6.494-12.391c-1.7-3.622-2.02-9.025-4.776-10.791-7.312-4.686-11.848-11.1-15.613-18.47-.107-.21-.474-.287-.719-.426a3.808,3.808,0,0,0,0,1.338c1.129,2.935,2.606,5.774,3.388,8.794.572,2.207.253,4.643.332,6.977-1.709-1.16-3.422-2.315-5.125-3.483a7.482,7.482,0,0,1-.925-.761c-4.661-4.454-10.751-8.144-13.65-13.545-4.823-8.99-7.3-19.2-11.324-28.666-3.59-8.448-7.651-16.729-12.039-24.793-2.816-5.175-5.971-10.473-10.138-14.517-3.822-3.709-9.2-5.821-13.908-8.607a11.7,11.7,0,0,0-1.872-.721c.328.512.625,1.047.989,1.532,4.917,6.548,10.575,12.674,14.588,19.734,5.312,9.345,9.453,19.369,13.872,29.2C385.555,489.317,387.254,494.441,389.179,499.464ZM632.42,656.09c.589.213,3.443,2.069,4.266,1.4,3.535-2.851,9.371-4.794,6.329-11.539-1.74-3.858-1.784-9.271-4.576-11.717-9.29-8.138-19.42-15.329-29.39-22.663-1.37-1.008-4.317-1.721-5.41-.959-7.462,5.2-14.671,10.778-21.826,16.405-.93.732-1.894,3.038-1.471,3.625,5.028,6.966,10.149,13.882,15.608,20.514,2.8,3.405,6.037,6.592,11.379,3.8,1.68-.879,4.122-.524,6.194-.391C619.364,654.94,625.193,655.493,632.42,656.09ZM357.3,651.563c-.017-.026.39.618.824,1.243,3.847,5.547,9.126,3.576,14.379,3.063,7.09-.692,14.512-1.97,21.292-.573,5.42,1.116,8.336-.676,11.033-3.9,5.144-6.156,9.627-12.865,14.779-19.013,2.5-2.986,1.246-4.115-1.168-5.9-7-5.17-13.813-10.6-20.8-15.793-.82-.609-2.7-.912-3.388-.406-8.343,6.111-16.1,13.168-24.93,18.429S358.042,641.679,357.3,651.563ZM531.834,466.116c-3.95,4.776-7.248,8.737-10.456,12.771-.1.13,1.172,1.186,1.043,1.493-1.909,4.557-3.576,9.278-6.058,13.516a81.493,81.493,0,0,1-8.772,11.606c-.52.605-2.611-.139-3.976-.26.537-1.082,1.038-2.185,1.617-3.244,2.5-4.565,5.028-9.112,7.491-13.695.1-.192-.353-.991-.535-.986-7.34.2-14.681.418-22.013.805-.6.032-1.765,1.579-1.605,1.914,1.58,3.3,3.375,6.5,5.13,9.725,1.072,1.967,2.18,3.915,3.272,5.871-2.476-1.054-5.9-1.432-7.235-3.3-2.949-4.121-4.851-8.991-7.171-13.561a95.546,95.546,0,0,1-4.234-8.6c-.683-1.77.126-4.805-.961-5.6-3.315-2.434-8.2-6.467-10.685-5.46-4.219,1.709-7.469,6.512-10.335,10.573-1.546,2.192-1.747,5.526-1.9,8.38-.042.783,2.174,2.178,3.524,2.451,3.721.752,7.926.207,11.217,1.733,5.412,2.509,11.591,5.206,15.063,9.675,7.578,9.754,19.36,12.086,28.945,4.066,3.681-3.08,6.977-6.829,11.086-9.136,5.159-2.9,10.955-4.673,16.516-6.829,1.846-.716,5.088-.673,5.455-1.744a8.537,8.537,0,0,0-.722-6.74c-2.584-3.747-5.988-6.929-9.062-10.338C535.448,470.063,534.412,468.939,531.834,466.116ZM736.715,238.533c-1.234-5-2.342-9.641-3.609-14.233-.066-.24-1.912-.458-2.2-.1-9.151,11.275-18.152,22.67-27.3,33.946-8.411,10.364-16.3,21.277-25.7,30.668-5.937,5.932-6.021,9.336.529,13.677.064.043.1.179.153.18,1.747.044,3.91.718,5.124-.069,1.234-.8,1.2-3.319,2.293-4.611,8.947-10.631,18.032-21.146,27.061-31.709q9.5-11.107,18.956-22.245C733.6,242.178,735.19,240.32,736.715,238.533Zm-470.471,1.824c.779,1.018,1.595,2.275,2.6,3.362,3.842,4.176,7.872,8.186,11.6,12.464,6.977,8.015,13.836,16.134,20.655,24.285,5.416,6.475,10.937,12.883,15.975,19.646,5.466,7.339,6.8-1.638,10.173-2.4a4.221,4.221,0,0,0,.1-3.252c-10.924-13.411-22.064-26.646-32.973-40.069-7.573-9.318-14.848-18.877-22.352-28.252-.251-.314-2.163.03-2.255.36C268.515,230.934,267.461,235.415,266.244,240.357ZM491.61,465.543q.054-.66.109-1.319l4.041,1.637c-1.253.4-2.542.723-3.754,1.225-3.547,1.47-7.065,3.011-10.591,4.533-.121.052-.2.2-.3.3,2.056,1.948,4.042,3.979,6.22,5.779.49.405,1.654.057,2.5-.039,5.879-.666,11.844-2.253,17.6-1.685,3.192.315,6.082,3.119,9.183-.134,1.152-1.208,2.168-2.546,3.246-3.825a15.75,15.75,0,0,1-3.575-.569,32.786,32.786,0,0,1-4.346-2.4,35.721,35.721,0,0,0-3.123-1.937,29.408,29.408,0,0,0-3.61-1.152c1.3-.438,2.682-1.4,3.888-1.219,4.549.692,9.008,2.263,13.562,2.551,5.362.34,10.036-6.3,16.016-1.876.17-.577.621-1.249.465-1.717-1.506-4.494-8.167-6.617-12.036-3.788-4.395,3.213-9.063,5.688-13.562.845-6.089-6.554-19.265-7.25-25.378-.782-3.836,4.06-7.757,4.6-12.327,1.111-5.216-3.987-10.265-3.27-13.474,1.689a8.892,8.892,0,0,0-.714,2.245c.718-.064,1.436-.177,2.155-.183,2.354-.019,4.77-.331,7.045.1,2.453.46,4.786,2.365,7.148,2.324C482.539,467.17,487.071,466.164,491.61,465.543ZM826.833,108l-.06-.225c-.354.177-.719.333-1.059.532-9.319,5.459-18.247,11.8-28.064,16.132-9.6,4.233-11.719,11.037-10.976,20.179a9.479,9.479,0,0,1-.491,4.063c-1.936,5.011-1.117,8.874,3.766,11.809,1.87,1.124,3.144,3.222,4.759,4.805.338.332,1.142.647,1.461.473,5.784-3.147,11.525-6.373,17.279-9.576,2.4-1.334,6.62-2.334,6.916-4.028C822.905,137.641,824.737,122.991,826.833,108Zm-650.569,1.5a5.085,5.085,0,0,0-.095.965c1.828,12.829,3.627,25.663,5.54,38.479.3,2,.515,4.921,1.809,5.709,5.781,3.522,12.107,6.145,17.9,9.645,4.232,2.556,7.6,4.346,10.865-1.2,1.408-2.392,5.239-4.169,5.348-6.355.267-5.4-.825-10.9-1.679-16.309-.487-3.087-.6-7.447-2.576-8.866-7.2-5.162-15.1-9.353-22.766-13.855C185.957,114.978,181.242,112.344,176.264,109.5ZM663.619,294.631c-.311.534-.937,1.136-.817,1.475,1.831,5.2,2.508,11.49,5.924,15.322,7.282,8.169,16,15.062,24.129,22.471a4.29,4.29,0,0,0,.741.447,2.969,2.969,0,0,0-.245-.639c-6.937-10.213-13.72-20.537-20.919-30.562C670.158,299.98,666.768,297.617,663.619,294.631ZM340.04,297.506l-1.69-1.362c-.239-.386-.5-1.111-.713-1.1a3.1,3.1,0,0,0-1.913.638c-1.136,1.221-2.027,2.665-3.124,3.925-4.463,5.129-9.352,9.941-13.348,15.407-4.061,5.555-7.259,11.74-10.826,17.654-.342.568-.622,1.173-.932,1.76.538-.492,1.08-.978,1.612-1.477,5.959-5.593,12.373-10.787,17.74-16.9C331.826,310.383,335.687,303.728,340.04,297.506Zm113.209,150.6c-1.248-.761-1.555-.9-1.8-1.105q-14.031-11.838-28.057-23.683a2.777,2.777,0,0,0-.618-.3c-.076.2-.274.459-.21.6,2.032,4.325,3.006,10.027,6.376,12.655,6.389,4.984,14.145,8.222,21.37,12.117C450.759,448.624,451.522,448.289,453.249,448.105ZM579.3,424.376c-.907-1.061-1.138-1.37-1.163-1.354a7.65,7.65,0,0,0-.943.713c-3.571,3.125-7.077,6.326-10.72,9.364-5.509,4.6-11.122,9.065-16.657,13.631-.4.333-.527,1.006-.781,1.522.579.046,1.275.326,1.72.1,6.019-3.018,12.717-5.242,17.783-9.433C573.1,435.148,575.863,429.2,579.3,424.376Zm-79.993,24.94c-2.667-1.14-4.958-2.428-7.417-3.04-1.215-.3-2.83.45-4.109,1.054-3.6,1.7-7.1,3.6-10.681,5.321-.359.173-1.356-.582-1.5-.42-.924,1.067-2.436,2.308-2.374,3.415.169,3,8.574,5.581,11.066,3.8,4.459-3.19,9.08-6.155,13.633-9.214C498.3,449.982,498.669,449.739,499.307,449.316Zm11.063-3.363c-2.057.737-4.283,1.507-6.486,2.339a14.186,14.186,0,0,0-1.824,1c.62.421,1.233.851,1.861,1.259,3.528,2.293,7.447,4.159,10.5,6.971,4.378,4.037,9.7,3.787,13.161-1.453a1.833,1.833,0,0,0-.483-1.725c-2.042-.954-4.261-1.547-6.261-2.573C517.327,449.975,513.936,447.953,510.37,445.953ZM832.488,619.82l-.867-1.4c-1.063.572-2.42.9-3.143,1.756-5.242,6.221-10.359,12.548-15.5,18.857a3.284,3.284,0,0,0-.36,1.06,5.824,5.824,0,0,0,1.958-.719q11.917-10.708,23.737-21.527a5.9,5.9,0,0,0,.916-1.923c-.582.293-1.182.554-1.742.884C835.816,617.8,834.155,618.815,832.488,619.82ZM188.739,640.244a18.05,18.05,0,0,0-1-1.623c-3.735-4.458-7.382-8.994-11.263-13.32a40.613,40.613,0,0,0-6.937-6.3c-1.608-1.115-3.852-1.3-5.8-1.944a13.512,13.512,0,0,1-1.65-.8,6.534,6.534,0,0,0,.877,1.882c3.2,3.347,6.286,6.825,9.739,9.89,4.544,4.033,9.382,7.734,14.12,11.545A7.693,7.693,0,0,0,188.739,640.244Zm706.024-77.851-1.413-1.5c-.258.268-.658.493-.754.81-1.616,5.363-3.082,10.774-4.808,16.1-2.462,7.6-4.941,15.207-7.74,22.688-1.663,4.444-3.963,8.648-5.945,12.974-.129.282.012.687.027,1.034a5.32,5.32,0,0,0,.581-.745c3.288-6.17,7.279-12.082,9.688-18.579C888.43,584.3,891.45,573.054,894.763,562.393ZM500.5,486.086c3.286-1.2,6.313-2.261,9.291-3.443.511-.2.813-.935,1.211-1.422a5.227,5.227,0,0,0-1.5-.485q-9.021-.048-18.041,0a5.052,5.052,0,0,0-1.481.5c.4.485.711,1.21,1.225,1.414C494.183,483.831,497.211,484.887,500.5,486.086Zm79,20.594c-.619-1.244-.84-1.753-.872-1.742-.506.184-1.238.305-1.436.69-2.439,4.737-4.8,9.512-7.164,14.289-.083.167.055.443.09.668.2-.11.47-.17.579-.337C573.722,515.606,576.731,510.952,579.5,506.68Zm-154.73,5.662-1.1.827,6.782,7.269c.17-.181.524-.444.486-.529-2.056-4.5-4.086-9.016-6.291-13.444-.359-.721-1.508-1.048-2.292-1.557.266.895.511,1.8.8,2.684C423.679,509.18,424.229,510.759,424.768,512.342Zm-306.3,83.889c-2.086-7.158-4.032-13.862-6.012-20.556-.1-.324-.5-.559-.756-.835-.091.4-.358.866-.248,1.206q3.168,9.855,6.422,19.681a4.444,4.444,0,0,0,.444.782Z" transform="translate(-66.435 -105.072)"/><path class="a" d="M300.881,646.84c-8.137,2.534-14.906,4.611-21.64,6.8-.53.172-.814,1.1-1.212,1.684a10.838,10.838,0,0,0,2.01.285,18.612,18.612,0,0,0,2.448-.4c-.8.561-1.585,1.158-2.417,1.673s-1.718.948-2.58,1.417c.557.606,1.119,1.208,1.67,1.82.189.209.354.44.53.661-.493-.067-1.207.053-1.445-.229-3.42-4.046-6.458-1.167-9.051.83a175.855,175.855,0,0,0-13.566,11.7c-2.3,2.183-4.041,4.959-6.057,7.45a3.17,3.17,0,0,1-.83.53c-.15-.355-.478-.738-.425-1.059,2.036-12.357,6.03-23.254,16.076-32.127,8.561-7.561,18.3-11.441,28.549-15.222,13.768-5.08,29.173-1.732,37.513,10.8,5.57,8.37,10.927,17.058,17.664,24.43,8.036,8.793,17.42,16.358,26.293,24.375.943.852,2.371,1.167,3.574,1.731a25.2,25.2,0,0,0-2.869-3.179c-1.751-1.4-3.7-2.55-5.543-3.831-.833-.578-1.625-1.217-2.435-1.828.28-.228.6-.684.835-.647,1.341.209,2.891.19,3.953.885,4.984,3.263,9.93,6.6,14.7,10.17,3.981,2.978,7.336,6.967,11.619,9.329a167.88,167.88,0,0,0,20.879,9.369c9.373,3.6,18.853,7,28.48,9.836,3.239.953,7.27-.888,10.578-.041,4.736,1.212,8.99,4.795,13.717,5.457a244.469,244.469,0,0,0,32.059,2.4A129.589,129.589,0,0,0,529.2,729.5c6.469-1.245,12.5-4.635,18.927-6.282,3.966-1.016,8.6.328,12.429-.929,8.138-2.673,15.953-6.334,23.887-9.623,6.018-2.5,12.3-4.537,17.935-7.721,4.683-2.646,8.524-6.752,12.863-10.048,4.859-3.691,9.8-7.291,14.866-10.683.745-.5,2.4.364,3.639.6a14.477,14.477,0,0,1-1.629,1.722c-2.606,2-5.277,3.913-7.872,5.925a7.229,7.229,0,0,0-1.191,1.644c.778-.165,1.744-.092,2.306-.533,6.606-5.183,13.87-9.777,19.518-15.866,6.046-6.518,10.327-14.638,15.8-21.735,5.487-7.117,10.685-14.814,17.5-20.451,6.694-5.535,15.794-6.614,24.467-4.5a105.58,105.58,0,0,1,18.936,6.459A55.324,55.324,0,0,1,746.961,660.4c3.258,5.723,3.9,12.939,5.665,19.5.091.338-.326.813-.507,1.224a50.27,50.27,0,0,1-4.99-4.608c-2.541-3.04-4.493-6.634-7.3-9.373a36,36,0,0,0-9.63-6.8c-1.958-.919-4.782-.011-7.214.113a11.518,11.518,0,0,0-1.693.335c.37-.359.766-.7,1.105-1.083.39-.443.729-.93,1.091-1.4-.7-.467-1.377-.957-2.091-1.394-.957-.587-1.939-1.133-2.911-1.7a16.489,16.489,0,0,0,2.672.434,6.82,6.82,0,0,0,1.886-.538c-.358-.464-.617-1.151-1.088-1.36-11.146-4.945-22.654-9.069-33.859-1.138-5.519,3.906-9.641,9.759-14.54,14.583-2.286,2.25-4.926,4.139-7.382,6.22a5.83,5.83,0,0,0-.813,1.108,6.043,6.043,0,0,0,1.1.11c11.709-.905,23.483-3.05,35.111-2.433,15.33.813,30.6,4.981,40.1,18.085a91.247,91.247,0,0,1,14.34,29.9,54.389,54.389,0,0,1-3.81,37.872c-2.875,5.882-5.025,12.435-9.148,17.285a22.1,22.1,0,0,1-13.256,6.8c-10.374,1.184-20.931.911-31.414.946-9.839.032-19.68-.265-29.517-.52a27.963,27.963,0,0,1-4.791-.948c1.454-.245,2.9-.562,4.363-.72,2.722-.3,5.455-.5,8.183-.742-2.823-.534-5.652-1.042-8.468-1.612-1.976-.4-3.934-.885-5.9-1.332,1.675-.045,3.363.025,5.024-.152,9.59-1.022,19.507-.96,28.627-3.62,4.895-1.427,9.782-6.864,12.271-11.722,4.986-9.735,5.684-20.378,2.4-31.221-3.169-10.456-11.7-14.359-20.631-17.258-7.617-2.472-15.709-3.481-23.6-5.117a6.809,6.809,0,0,0-1.392-.007,6.342,6.342,0,0,0,.846,1.253c8.4,7.666,8.411,16.264,2.358,26.259-6.434,10.625-16.268,13.9-27.077,14.025-5.742.067-11.636-3.529-17.26-5.942-3.625-1.555-6.92-3.908-10.27-6.048-.512-.328-.522-1.443-.764-2.194.786-.242,1.748-.9,2.328-.655,2.431,1.026,5.111,1.906,7.045,3.591,9.076,7.906,23.207,8.346,32.251.469,4.622-4.025,6.05-9.253,3.91-15.123-2.007-5.5-4.61-9.7-11.515-11.033-11.025-2.136-21.4-1.287-31.343,3.454-11.744,5.6-23.317,11.577-34.816,17.669-10.161,5.382-19.716,12.132-30.283,16.461-10.287,4.214-21.388,6.868-32.378,8.807a134.832,134.832,0,0,1-27.717,1.472c-19.893-.658-37.756-7.412-54.439-18.39-9.641-6.344-20.477-10.9-30.865-16.076-8.828-4.4-17.441-9.754-26.8-12.414-7.317-2.081-15.635-1.016-23.487-.744-9.856.343-11.429,7.581-12.693,14.646-1.178,6.589,5.286,14.285,12.124,16,10.9,2.725,19.89-1.229,28.47-7.433,1.337-.967,3.722-.487,5.622-.676-1.019,1.332-1.761,3.317-3.1,3.89-7.59,3.233-15.144,6.76-23.047,9-15.11,4.288-30.814-7.653-33.37-22.64a15.863,15.863,0,0,1,5.966-15.893,15.592,15.592,0,0,0,1.494-1.534,6.141,6.141,0,0,0-1.993-.1c-12.013,3.566-24.63,5.882-35.806,11.215-8.188,3.907-10.084,14.043-9.735,22.784.284,7.124,2.378,14.36,4.765,21.163,2.315,6.6,7.883,10.38,14.929,11.057,9.652.927,19.343,1.441,29.015,2.167a4.854,4.854,0,0,1,1.428.617c-.433.29-.847.795-1.3.837-3.383.31-6.783.448-10.158.825a11.094,11.094,0,0,0-2.931,1.242,15.159,15.159,0,0,0,3.294.973c2.317.154,4.652.017,6.977.074a14.58,14.58,0,0,1,2.286.412,11.52,11.52,0,0,1-3.049.962c-5.879.152-11.773-.029-17.642.276-8.879.463-17.785,2.069-26.6,1.622-7.784-.394-15.4-3.353-23.2-4.409-8.768-1.189-12.195-7.931-14.934-14.414-3.563-8.432-6.939-17.422-7.734-26.408-.741-8.384,1.072-17.351,3.493-25.549,2.074-7.022,6.677-13.281,10.027-19.946,5.54-11.022,15.842-15.106,26.626-18.58,13.456-4.335,27.143-3.432,40.862-1.9,2.624.294,5.23.743,7.849,1.083.993.129,2,.152,3,.223-.805-.723-1.635-1.42-2.413-2.172-6.059-5.853-11.791-12.1-18.274-17.439C310.775,651.518,305.524,649.448,300.881,646.84ZM355.555,702.1a15.246,15.246,0,0,0,3.87,1.065c2.812.021,5.625-.385,8.441-.435a12.257,12.257,0,0,1,3.072.75c-1.063.28-2.125.568-3.191.835-.691.174-1.39.317-2.085.474a3.078,3.078,0,0,0,.748.438c4.438,1.107,8.875,2.218,13.331,3.246.416.1.961-.364,1.445-.566-1.741-1.57-3.282-4.124-5.261-4.526-5.786-1.176-11.747-1.494-17.639-2.149l.968-.717c-.6-.279-1.232-.848-1.8-.793-11.805,1.123-23.611,2.244-35.394,3.573-1.9.215-3.7,1.423-5.54,2.172a59.542,59.542,0,0,1,6.548-1.193C333.89,703.48,344.724,702.811,355.555,702.1Zm287.133-.864c-6.053.677-12.178,1-18.116,2.235-1.886.392-3.271,3.195-4.886,4.894a10.4,10.4,0,0,0,2.264-.044c4.056-.969,8.095-2.006,12.135-3.037a9.716,9.716,0,0,0,1.229-.5c-.372-.128-.739-.274-1.117-.381-1.376-.39-2.756-.767-4.134-1.148,1.5-.21,3-.5,4.511-.6.958-.066,1.945.275,2.9.206,2.652-.191,5.3-.5,7.943-.764a5.94,5.94,0,0,1,1.663-.321c11.978,1.22,23.952,2.479,35.929,3.706a6.77,6.77,0,0,0,1.567-.2,6.361,6.361,0,0,0-1.258-.659c-5.462-1.449-10.86-3.537-16.417-4.135-7.809-.84-15.737-.583-23.616-.734-.517-.01-1.043.5-1.566.762ZM683.6,645.518c-4.18,2.211-9.01,1.964-12.126,7.6-4.648,8.414-11.745,15.472-17.762,23.137a7,7,0,0,0-.737,1.947c.543-.3,1.1-.575,1.628-.895,11.906-7.19,23.045-15.192,29.417-28.152.6-1.221,6.324-3.259-.436-3.658,5.965-.78,12.338-3.277,17.809-1.977,10.783,2.563,21.066,7.23,31.555,11.03.5.18.991.383,1.485.575-.153-.317-.222-.748-.473-.935-3.62-2.708-7-5.878-10.952-7.972-11.327-6-23.143-10.375-36.219-6.29-3.116.973-5.931,2.909-8.884,4.4,1.859.173,3.718.34,5.573.546C683.54,644.887,683.559,645.3,683.6,645.518Zm-366.221,0c1.209-.088,2.422-.142,3.626-.275a19.418,19.418,0,0,0,2-.429c-.159-.413-.23-1.118-.491-1.2-5.588-1.7-11.182-4.577-16.806-4.647a48.978,48.978,0,0,0-18.745,4c-6.977,2.881-13.294,7.362-19.88,11.179-.284.164-.406.61-.6.924a3.017,3.017,0,0,0,.845-.1c7.942-3.44,15.6-8.373,23.893-9.933,8.4-1.581,17.424.172,26.175.465-1.076.07-2.152.136-3.227.212-.3.021-.591.071-.886.108.111.182.206.375.333.544,2.694,3.571,5,7.549,8.173,10.621,6.329,6.118,13.071,11.819,19.8,17.509,1.857,1.571,4.263,2.493,6.417,3.713q-2.108-2.916-4.215-5.831c-.046-.065-.064-.151-.112-.215-5.2-7.074-10-14.493-15.781-21.056C325.439,648.318,320.945,647.326,317.378,645.518Zm421.513,69.664c1.589,2.32,3.166,4.648,4.78,6.951a6.072,6.072,0,0,0,1.023.928,6.844,6.844,0,0,0,.154-1.221c-.592-11.97-6.629-21.44-14.108-30.149-7.977-9.289-18.551-13.336-30.478-14.347a6.241,6.241,0,0,0-2.037.562c.541.411,1.072.836,1.625,1.23,1.416,1.01,2.843,2.007,4.266,3.009a5.119,5.119,0,0,1-1.915.144c-7.62-2.6-15.055-6.218-23.494-3.853-7.3,2.044-14.8,3.538-21.852,6.222-9.145,3.479-17.938,7.885-26.86,11.941-.5.227-.8.9-1.189,1.361a5.351,5.351,0,0,0,.92.1c8.02-.5,16.038-1.384,24.062-1.455a84.326,84.326,0,0,1,41.673,10.72,140.527,140.527,0,0,1,21.531,14.419c6.957,5.709,11.152,13.508,11.055,22.866-.147,14.214-7.759,24.174-18.844,32.038a5.508,5.508,0,0,0-1.037,1.479,4.085,4.085,0,0,0,1.521.329c16.352-3.281,32.49-15.349,33.889-34.326.6-8.168,3.109-16.566-3.3-23.819-1.038-1.174-1.419-2.929-2.1-4.415Zm-476.837.046.684.647c-1.642,3.143-4.664,6.285-4.669,9.431-.018,9.861-.869,20.4,2.238,29.43,4.737,13.764,16.874,20.681,30.953,23.709a4.2,4.2,0,0,0,1.542-.293,8.17,8.17,0,0,0-1-1.5c-4.062-3.9-8.435-7.525-12.177-11.712-7.494-8.387-8.893-26.511-2.8-34.74,10.605-14.322,25.467-22.794,41.777-28.592,17.072-6.069,34.788-6.856,52.641-3.558a3.436,3.436,0,0,0,.92-.085c-.2-.312-.322-.763-.605-.914-5.969-3.174-11.767-6.769-17.989-9.334a134.165,134.165,0,0,0-19.844-6.235c-9.429-2.261-18.831-6.544-28.736-1.195-2.358,1.273-5.4,1.272-8.131,1.856.3-.541.455-1.307.911-1.583,1.608-.97,3.318-1.773,4.99-2.639q-3.425-.119-6.847-.232a2.614,2.614,0,0,0-.475.091c-21.333,3.5-37.694,24.3-39.266,43.869-.036.45-.061.9-.091,1.352a4.662,4.662,0,0,0,1.249-.878C258.941,719.85,260.487,717.532,262.054,715.228Zm264.191,36.241q.223.865.448,1.731c7.326-3.119,14.656-6.227,21.967-9.38a6.123,6.123,0,0,0,1.381-1.188,12.253,12.253,0,0,0-1.9.246c-2.155.622-4.285,1.33-6.443,1.941a3.851,3.851,0,0,1-1.338-.12,4.7,4.7,0,0,1,.891-.825c3-1.589,5.985-3.228,9.048-4.7,7.765-3.718,15.571-7.351,23.35-11.04.237-.112.362-.463.539-.7a3.594,3.594,0,0,0-1.217-.061c-6.712,2.123-13.346,4.535-20.138,6.357-7.632,2.046-15.328,4.3-23.137,5.121-8.906.94-17.968.515-26.962.488-15.816-.047-31.71,1.028-47.155-3.929-9.082-2.915-18.312-5.371-27.481-8.014a5.382,5.382,0,0,0-1.281-.056c.288.313.517.754.875.922,9.927,4.661,19.88,9.27,29.791,13.967a19.732,19.732,0,0,1,3.183,2.369,26.648,26.648,0,0,1-3.344-.383c-1.876-.446-3.712-1.06-5.574-1.568a2.262,2.262,0,0,0-.836.107,3.134,3.134,0,0,0,.5.465c1.886,1.1,3.655,2.647,5.694,3.207,7.923,2.178,15.863,4.41,23.929,5.92,8.3,1.554,16.76,3.166,25.139,3.106C512.876,755.407,519.556,752.89,526.245,751.469Zm-248.017-6.841c2.681,6.677,4.664,12.951,7.68,18.68,2.182,4.145,5,9.078,8.855,10.95,5.475,2.66,12.149,2.885,18.333,4.028a33.256,33.256,0,0,0,4.973.193,26.472,26.472,0,0,0-4.632-1.1c-9.94-.579-18.425-3.864-22.691-13.528-4.846-10.978-6.813-22.349-2.306-34.075a10.962,10.962,0,0,0,.261-3.022c-.536.3-1.324.47-1.569.927C284.206,733.133,281.361,738.632,278.228,744.628Zm444.515.556c-2.939-5.837-5.856-11.683-8.854-17.489-.242-.468-1.035-.651-1.572-.967a17.389,17.389,0,0,0-.022,1.811c.64,7.294,2.15,14.637,1.725,21.866-.487,8.294-2.726,16.9-10.585,21.378-5.172,2.948-11.507,3.862-17.33,5.658-1.067.329-2.175.524-3.264.781a26.549,26.549,0,0,0,3.084.256,24.11,24.11,0,0,0,4.283-.4c5.811-1.222,13.563-.645,17-4.206C714.405,766.4,721.064,757.563,722.743,745.184ZM250.53,743.86l1.181.272c1.109,4.776,1.49,9.89,3.51,14.244,2.575,5.55,5.526,11.656,10.079,15.346,4.3,3.481,10.873,4.156,16.462,6.017a6,6,0,0,0,1.809.022c-.478-.337-.959-.671-1.434-1.012-6.665-4.779-14.217-8.713-19.775-14.547-7.387-7.754-8.91-18.175-8.243-28.765a5.507,5.507,0,0,0-.542-1.794,5.079,5.079,0,0,0-.909,1.365C251.912,737.947,251.234,740.907,250.53,743.86Zm500.315-2.608c-.924-2.277-1.423-3.647-2.033-4.965-.418-.9-.989-1.732-1.491-2.6-.1,1.015-.2,2.028-.3,3.043-.419,4.477-.218,9.12-1.364,13.4-3.837,14.343-13.34,23.634-27.123,28.758-.412.153-.711.609-1.062.924a3.643,3.643,0,0,0,1.374.069c8.6-3.173,19.054-3.436,23.106-13.941C745.183,757.574,748.048,749.061,750.845,741.252Zm-81.8-16.042c-.24-8.692-11.763-19.2-18.89-18.994a8.289,8.289,0,0,0-.91.125,7.3,7.3,0,0,0,.974.9c9.093,5.807,13.232,14.246,13.279,24.88,0,.263.22.525.337.788.2-.1.487-.14.589-.3C666.243,729.725,668.039,726.827,669.045,725.21Zm-337.118.037,4.959,7.66c.157-1.888-.021-3.879.528-5.645,2.521-8.107,5.385-16.053,13.77-20.2.24-.118.37-.46.551-.7a6.668,6.668,0,0,0-.889-.154C343.782,705.931,332.194,716.479,331.927,725.247Zm417.456-7.793a97.516,97.516,0,0,0-2.857-9.386,43.476,43.476,0,0,0-4.264-7.325c-.254-.4-1.118-.405-1.7-.592a6.847,6.847,0,0,1,.651,1.229c2.223,7.508,4.54,14.991,6.585,22.547,1.12,4.137,1.764,8.4,2.66,12.6.064.295.445.523.679.783,0-.226.021-.454,0-.678C750.619,730.937,750.1,725.239,749.383,717.454Zm-499.226,19.76a.822.822,0,0,0,.262-.375c.881-3.553,1.713-7.117,2.613-10.665,1.888-7.434,3.785-14.867,5.74-22.284a34,34,0,0,1,1.5-3.83c-1.109.864-2.574,1.514-3.251,2.638a22.358,22.358,0,0,0-3.073,6.878c-1.385,7-2.421,14.066-3.465,21.126A63.37,63.37,0,0,0,250.157,737.214ZM399.913,715.67l-2.181,1.153a3.019,3.019,0,0,0,.5.46q7.515,4.344,15.043,8.666a4.356,4.356,0,0,0,.888.279c-.025-.207.027-.524-.088-.6C409.16,722.152,404.235,718.7,399.913,715.67Zm187.96,10.785c4.843-2.973,9.981-6.124,15.106-9.294.114-.07.1-.352.142-.535a1.86,1.86,0,0,0-.689.079q-7.7,4.351-15.381,8.745c-.174.1-.232.4-.344.606Zm33.8-21.44a16.152,16.152,0,0,0-2.6.013,94.6,94.6,0,0,0-8.9,3.421c-1.575.77-2.771,2.315-4.138,3.51,1.579-.256,3.162-.486,4.734-.779a7.7,7.7,0,0,0,2.565-.684C615.715,709.045,618.007,707.445,621.673,705.015Zm-239.35-.3-1.28.333c.188.237.326.564.569.7,4.087,2.229,8.18,4.445,12.3,6.609.215.113.684-.256,1.035-.4-.23-.308-.393-.74-.7-.905C390.148,708.845,386.029,706.678,382.323,704.717Z" transform="translate(-66.435 -105.072)"/><path class="a" d="M757.877,337.336c-1.4,12.286-2.842,24.922-4.286,37.558-.031.27-.092.536-.139.8a6.039,6.039,0,0,0,.883-.346c3.407-1.969,6.772-4.015,10.225-5.9a43.772,43.772,0,0,1,4.772-1.944c-.177,1.961.2,4.212-.639,5.827-2.378,4.564-5.255,8.869-7.944,13.27a6.164,6.164,0,0,1-.6.72,4.517,4.517,0,0,0,.856-.123c1.281-.442,2.546-.931,3.829-1.365,2.422-.821,4.853-1.615,7.28-2.421-1.109,3.338-1.2,8.161-3.511,9.745-8.12,5.564-7.044,12.753-6.705,21.015.565,13.738-.227,27.574-1.165,41.32-.91,13.33-1.6,26.842-4.417,39.834-3.737,17.225-9.1,34.134-14.451,50.96-2.906,9.135-7.21,17.828-10.971,26.683-.311.732-1.291,1.18-1.961,1.76a20.975,20.975,0,0,1,.544-2.624c3.8-11.134,8.168-22.108,11.283-33.428a281.639,281.639,0,0,0,7.6-35.747,252.944,252.944,0,0,0,2.145-34.83c0-14.568-.071-29.259-1.915-43.666-1.612-12.6-5.539-24.926-8.825-37.272-1.125-4.226-4.851-8.19-4.726-12.19.113-3.6,4.134-6.96,5.958-10.658,2.856-5.788,5.437-11.721,7.89-17.693,1.369-3.334,2.061-6.946,3.428-10.281.562-1.369,2.1-2.34,3.189-3.492C756.176,334.13,756.853,335.405,757.877,337.336ZM758.53,451.1c0-9.47.58-21.769-.184-33.983-.6-9.656-.163-18.448,7.327-25.534.2-.193.094-.718.13-1.088a12.175,12.175,0,0,1-1.348.357c-3.339.5-6.68.976-10.031,1.376-.017,0-.483-1.384-.224-1.8,3.2-5.2,6.506-10.33,9.769-15.488a6.435,6.435,0,0,0,.437-1.067c-.346,0-.792-.144-1.022.019-2.554,1.8-5,3.765-7.627,5.46-1.907,1.233-4.029,2.132-6.055,3.18a26.743,26.743,0,0,1-.253-4.3c.822-8.374,1.751-16.738,2.612-25.108a4.724,4.724,0,0,0-.314-1.424c-.268.451-.559.889-.8,1.353-2.536,4.865-5.179,9.678-7.548,14.623-1.278,2.667-3.442,5.882-2.87,8.3,2.825,11.935,6.954,23.57,9.585,35.539,1.921,8.746,2.572,17.822,3.163,26.793.575,8.718.594,17.494.417,26.236-.219,10.74-.511,21.507-1.5,32.194-.718,7.749-2.628,15.387-3.99,23.077a5.219,5.219,0,0,0,.053,1.159c.2-.3.534-.587.6-.919,1.739-9.067,3.83-18.088,5.076-27.224C755.69,479.9,756.823,466.9,758.53,451.1Z" transform="translate(-66.435 -105.072)"/><path class="a" d="M266.44,373.473c-2.068,5.6-4.244,10.531-5.707,15.664-2.779,9.75-6.171,19.486-7.452,29.465-1.965,15.318-3.378,30.852-3.144,46.265.247,16.307,1.394,32.836,4.532,48.8,3.486,17.737,9.637,34.953,14.7,52.375.719,2.472,1.877,4.814,2.75,7.246.152.423-.106.993-.175,1.5-.572-.488-1.416-.861-1.677-1.48-4.183-9.907-8.814-19.666-12.288-29.82-4.58-13.389-9.113-26.907-12.036-40.715-2.7-12.766-3.346-25.977-4.727-39.01-1.079-10.184-2.458-20.384-2.673-30.6-.208-9.856,1.458-19.76,1.112-29.6-.109-3.094-4.324-5.9-6.182-9.117-1.909-3.3-3.235-6.944-4.816-10.437,1.021-.147,2.185-.682,3.038-.369,2.847,1.043,5.581,2.392,8.363,3.615a4.055,4.055,0,0,0,.683.167c-.193-.3-.412-.577-.576-.887-2.862-5.419-5.764-10.817-8.517-16.29-.367-.729.035-1.845.08-2.782a13.51,13.51,0,0,1,3.507.915c3.814,2.209,7.524,4.6,11.284,6.9a5.635,5.635,0,0,0,1.1.4,4.458,4.458,0,0,1-.384-1.091c-1.019-13.314-2.034-26.628-2.969-39.948-.039-.556.658-1.615,1.079-1.651.669-.056,1.83.386,2.03.906,2.9,7.556,5.216,15.373,8.634,22.678,2.263,4.837,6.12,8.916,9.125,13.426A14.022,14.022,0,0,1,266.44,373.473Zm-5.372.216a25.527,25.527,0,0,0-1.623-4.844c-3.025-5.229-6.236-10.351-9.364-15.52-.314-.518-.544-1.085-.813-1.63a6.49,6.49,0,0,0-.363,1.874c.965,8.6,2,17.193,2.95,25.795a13.506,13.506,0,0,1-.34,3.02,10.553,10.553,0,0,1-2.775-.873c-3.681-2.424-7.277-4.977-10.929-7.447a3.3,3.3,0,0,0-1.23-.232,5.573,5.573,0,0,0,.4,1.073c3.263,5.159,6.567,10.292,9.773,15.487.268.434-.1,1.262-.178,1.907-3.278-.424-6.557-.841-9.834-1.278-.571-.077-1.131-.242-1.695-.366a9.245,9.245,0,0,0,.93,1.575c5.364,5.992,7.063,12.826,7.058,20.978-.014,19.4.372,38.862,1.921,58.193,1.253,15.646,4.428,31.139,6.788,46.695a18.064,18.064,0,0,0,.941,2.889c-.059-.938-.064-1.883-.186-2.813-1.678-12.818-4.214-25.592-4.844-38.459a334.4,334.4,0,0,1,.575-46.082c1.274-14.214,4.588-28.27,7.443-42.306C256.89,385.354,259.221,379.611,261.068,373.689Z" transform="translate(-66.435 -105.072)"/><path class="a" d="M615.129,817.9c-6.036-4.015-9.866-6.69-13.867-9.077-.557-.332-1.945.79-2.973,1.171-2.3.852-4.927,2.784-6.848,2.243-3.506-.989-6.6-3.441-9.854-5.312a14.043,14.043,0,0,1-1.555-1.2c.742-.12,1.61-.551,2.2-.309,3.071,1.254,5.973,3.073,9.142,3.866,1.383.347,3.253-1.3,4.915-2.01,1.571-.669,3.685-2.277,4.646-1.763,3.44,1.841,6.476,4.429,9.7,6.679a10.964,10.964,0,0,0,2.113.906,14.637,14.637,0,0,0-.029-2.218c-.335-2.091-.754-4.169-1.14-6.252a44.611,44.611,0,0,1,2.556,5.73C614.679,812.166,614.67,814.139,615.129,817.9Z" transform="translate(-66.435 -105.072)"/><path class="a" d="M404.4,814.756a22.306,22.306,0,0,1-1.364-4c-.8-4.9-3.622-2.061-5.249-1.137-2.743,1.559-5.034,3.9-7.707,5.609-.982.629-2.5.413-3.782.583-.14-1.2-.326-2.389-.393-3.588a2.676,2.676,0,0,1,.443-1.122q1.557-3.237,3.13-6.466c-.467,2.343-.961,4.681-1.38,7.033a4.915,4.915,0,0,0,.189,1.462,18.5,18.5,0,0,0,2.277-1.146c3.375-2.3,6.619-4.825,10.151-6.847.743-.425,2.718.669,3.733,1.526,1.064.9,1.98,3.5,2.4,3.381,2.566-.726,4.922-2.153,7.447-3.073a62.516,62.516,0,0,1,6.316-1.625c.055.337.242.924.147.974C416.049,808.782,411.321,811.2,404.4,814.756Z" transform="translate(-66.435 -105.072)"/><path class="a" d="M442.366,812.7c-.837-.975-2.162-1.874-2.051-2.527.218-1.276,1.231-2.42,1.949-3.6a.729.729,0,0,1,.6.125c2.016,2.8,2,2.768,5.361,1.105a22.529,22.529,0,0,1,3.046-1.016c-.708.9-1.242,2.1-2.161,2.651C447.145,810.617,444.983,811.462,442.366,812.7Z" transform="translate(-66.435 -105.072)"/><path class="a" d="M557.139,812.222c-1.839-1.056-4.387-2.472-6.868-4-.354-.218-.38-.968-.558-1.471a5.858,5.858,0,0,1,1.534.268c1.89.891,3.7,1.969,5.646,2.708.473.18,1.639-.51,1.929-1.083.265-.522-.227-1.427-.386-2.163.76.786,1.965,1.48,2.155,2.386s-.562,2.062-1.071,3.017C559.388,812.132,558.613,812.035,557.139,812.222Z" transform="translate(-66.435 -105.072)"/><path class="a" d="M498.339,427.29l-3.046,2.132c-1.447-3.2-2.9-6.4-4.31-9.626-.057-.129.359-.464.555-.7Z" transform="translate(-66.435 -105.072)"/><path class="a" d="M505.071,429.663a12,12,0,0,1-1.306-2.808c-.113-.571.423-1.381.858-1.931,1.569-1.98,3.22-3.9,4.84-5.836.2.171.6.417.568.5q-1.809,4.844-3.715,9.649C506.262,429.377,505.9,429.392,505.071,429.663Z" transform="translate(-66.435 -105.072)"/><path class="a" d="M704.092,682.125c2.1.5,4.588.456,6.244,1.605,11.917,8.266,22.035,18.248,28.554,31.452l-.716.71c-3.34-4.173-6.249-8.807-10.113-12.419-7.26-6.787-15.08-12.973-22.636-19.445A9.22,9.22,0,0,1,704.092,682.125Z" transform="translate(-66.435 -105.072)"/><path class="a" d="M262.054,715.228c7.123-8.722,13.956-17.707,21.515-26.034,2.891-3.185,7.418-4.9,11.263-7.183.489-.291,1.359.06,2.053.114-3.071,2.194-6.556,3.989-9.136,6.658-7.5,7.754-14.63,15.86-21.912,23.822-1.014,1.108-2.065,2.18-3.1,3.27Z" transform="translate(-66.435 -105.072)"/><path class="a" d="M569.981,477.364c-3.808,4.187-7.569,8.372-11.426,12.467-.292.31-1.265-.022-1.921-.055.288-.483.545-.987.868-1.446q4.418-6.27,8.861-12.523c.363-.51.82-.953,1.233-1.427Z" transform="translate(-66.435 -105.072)"/><path class="a" d="M433.475,473.532a37.067,37.067,0,0,0,2.552,5.145c2.4,3.308,5.007,6.469,7.522,9.695.313.4.579.843.867,1.265-.559.136-1.184.506-1.668.371-7.221-2-8.207-8.549-10.258-14.286C432.356,475.347,432.918,474.723,433.475,473.532Z" transform="translate(-66.435 -105.072)"/><path class="a" d="M792.145,146.657c1.5-4.788,2.955-9.591,4.556-14.346a3.317,3.317,0,0,1,1.8-1.517c1.487-.64,3.06-1.081,4.6-1.6-1.523.09-3.05.274-4.568.223-.6-.02-1.177-.565-1.764-.872a6.361,6.361,0,0,1,1.406-1.211q9.7-4.253,19.448-8.375c.233-.1,1.1.493,1.08.725-.517,8.01-.625,16.09-1.849,24-.843,5.447-9.824,14.409-16.713,13.841-.733-.061-1.237-3.083-1.813-4.743a12.544,12.544,0,0,1-.338-1.539c-.206.484-.4.975-.621,1.45-.563,1.2-1.14,2.39-1.711,3.584a21.363,21.363,0,0,1-1.567-3.688,52.966,52.966,0,0,1-.7-5.519Zm11.443,4.116c3.487-2.621,7.56-4.088,8.246-6.513,1.694-5.986,1.835-12.411,2.6-18.659.038-.307.067-.614.1-.921-.23.162-.471.312-.691.488-2.357,1.884-4.492,4.182-7.109,5.58-7.453,3.981-8.827,6.969-5.911,14.87A47.382,47.382,0,0,0,803.588,150.773Z" transform="translate(-66.435 -105.072)"/><path class="a" d="M184.215,129.6c0-2.615-.034-5.231.059-7.843.009-.233.923-.7,1.292-.6a18.436,18.436,0,0,1,2.618,1.16c4.931,2.209,9.87,4.4,14.793,6.624,1.091.494,2.129,1.106,3.191,1.664-1.263.189-2.52.456-3.79.537a12.209,12.209,0,0,1-2.367-.294c.085.339.078.9.272.978a13.755,13.755,0,0,1,2.339.74,41.7,41.7,0,0,1,6.418,4.859c.654.662.109,2.522.086,3.835-.079,4.467-.054,8.941-.329,13.4-.076,1.215-1.07,2.373-1.642,3.557-.53-1.152-1.078-2.295-1.582-3.458-.215-.5-.34-1.035-.507-1.555a15.112,15.112,0,0,0-.462,1.647c-.261,1.574-.472,3.157-.7,4.736-2.713-.672-6.063-.553-8.033-2.144C183.884,147.769,185.726,145.743,184.215,129.6Zm6.878,14.165-1.431,1.733c2.877,1.96,5.6,4.277,8.75,5.592.669.28,3.754-2.9,4.148-4.813.6-2.919,1.015-7.181-.6-8.987-3.687-4.122-8.652-7.1-13.1-10.538a1.41,1.41,0,0,0-.421-.148c.035.376.049.756.108,1.129Q189.814,135.754,191.093,143.77Z" transform="translate(-66.435 -105.072)"/></svg>