<svg xmlns="http://www.w3.org/2000/svg" viewBox="0 0 918.527 994.46"><defs><style>.a{fill:#fff;}</style></defs><title>Logo-Simple</title><path class="a" d="M865.36,190.209a843.056,843.056,0,0,1,44.083,75.7c11.345,22.4,22.271,45.338,30.064,69.125,6.918,21.115,11.036,43.548,13.253,65.714,3.778,37.768,5.623,75.761,7.168,113.705.551,13.528-2.213,27.181-3.313,40.789-1.2,14.822-1.008,29.879-3.655,44.428-2.8,15.409-7.571,30.569-12.69,45.421-5.782,16.777-12.236,33.4-19.633,49.522-8.529,18.589-18.119,36.715-27.794,54.748-7.464,13.911-15.27,27.693-23.859,40.926a245.081,245.081,0,0,1-23.739,31.533c-14.2,15.626-28.439,31.523-44.6,44.968-16.575,13.785-34.952,25.654-53.51,36.736-21.508,12.845-43.435,25.38-66.341,35.4-29.157,12.751-59.476,22.846-89.307,34.053a12.461,12.461,0,0,1-2.753.386,10.585,10.585,0,0,1,2.073-1.509c18.024-7.335,36.167-14.389,54.071-22.007,15.1-6.425,30.306-12.776,44.782-20.448,22.579-11.967,44.59-25.008,66.8-37.669,1.159-.661,1.918-2.023,2.864-3.059a32.555,32.555,0,0,1-3.562-.828c-30.326-10.581-56.36-.2-81.675,15.883-22.222,14.121-45.171,27.092-67.636,40.837-13.04,7.978-25.581,16.779-38.692,24.633-7.464,4.47-15.833,7.422-23.363,11.8-2.694,1.566-3.529,6.431-6.233,7.858-8.105,4.277-16.5,9.989-25.174,10.748-13.9,1.215-28.147-.737-42.158-2.2-3.028-.316-5.88-4.033-8.463-6.543-5.794-5.633-10.529-12.836-17.195-17-17.75-11.085-36.389-20.734-54.5-31.258-24.961-14.507-49.5-29.763-74.746-43.746-11.6-6.425-24.079-13.163-36.851-15.03-12.151-1.777-25.2,2.608-37.857,4.283.569,1.12.867,2.556,1.748,3.315,24.666,21.265,54.136,33.6,83.971,45.373,21.944,8.656,43.7,17.8,65.461,26.907,5.82,2.435,11.37,5.518,17.027,8.338a11.232,11.232,0,0,1,1.7,1.283,8.509,8.509,0,0,1-2.271-.181c-22.534-8.264-45.212-16.161-67.529-24.974-20.383-8.05-40.9-16.07-60.368-26.029-15.409-7.881-29.587-18.309-43.84-28.279-17.865-12.5-36.7-24.148-52.437-39-16.083-15.175-29.38-33.429-43.039-51a471.866,471.866,0,0,1-28.126-40.875,336.485,336.485,0,0,1-20.128-37.41c-10.846-23.734-21.935-47.466-30.776-71.972-7.067-19.587-11.23-40.256-16.11-60.582a129.592,129.592,0,0,1-3.745-26.258c-.819-28.184-1.586-56.4-1.155-84.582.339-22.2.893-44.608,4.2-66.493,4.667-30.895,8.568-62.61,19.016-91.745,12.258-34.183,30.876-66.131,47.363-98.731,6.818-13.483,16.864-25.82,24.332-38.988l28.981-32.457c8.57-8.192,16.405-17.212,25.39-24.9,14.239-12.174,29.042-23.71,43.918-35.109,9.243-7.083,18.671-14.091,28.725-19.907,11.461-6.63,23.59-12.161,35.647-17.7,17.767-8.155,35.39-16.8,53.693-23.567,21.492-7.942,43.234-16.4,65.624-20.416,25.77-4.625,52.368-4.641,78.606-6.658-6.434,1.154-12.841,2.491-19.305,3.426-17.8,2.576-36.8,1.995-53.064,8.393-13.24,5.208-23.9,18.026-34.438,28.722-8.545,8.676-17.451,18.222-22.251,29.12-11.976,27.185-14.922,56.272-11.983,85.867a7.512,7.512,0,0,0,.541,1.614,6.949,6.949,0,0,0,1.232-1.747q10.957-35.69,21.9-71.386c.281-.911,1.363-1.575,2.072-2.354a14.285,14.285,0,0,1,1.639,3.05c7.011,27.344,13.918,54.716,21.015,82.038.635,2.443,2.445,4.58,3.71,6.86a70.292,70.292,0,0,1-.376-7.912,82.731,82.731,0,0,1,1.413-12.286c.528-2.487,2.107-4.751,3.215-7.114q3.283,2.319,6.567,4.638c1.389.977,2.786,1.943,4.179,2.914a30.119,30.119,0,0,0,.061-3.89c-2.579-23.631-4.96-47.288-7.874-70.878-2.48-20.083,6.872-35.516,18.628-50.135,1.914-2.38,4.467-4.247,6.724-6.351a98.9,98.9,0,0,1-2.524,9.767C433.438,50.831,427.2,63.413,424.13,76.735c-2.13,9.251-.4,19.518.341,29.276,1.338,17.7,3.093,35.365,4.979,53.013.414,3.881,2.1,7.626,3.2,11.435-4.132-2.245-8.28-4.462-12.384-6.758a23.473,23.473,0,0,1-2.218-1.837c-1.2-.888-2.451-1.711-3.681-2.561a35.585,35.585,0,0,0-.484,4.633c.269,11.588.662,23.173.864,34.763.022,1.243-.932,2.5-1.434,3.756-.885-.7-2.29-1.225-2.582-2.116-9.094-27.781-18.069-55.6-27.118-83.4a15.475,15.475,0,0,0-1.924-3.124c-.352.453-.9.856-1.028,1.365-4.525,17.536-10.732,34.864-13,52.692-2.13,16.722-2.382,34.419.8,50.864,2.845,14.719,10.5,28.854,17.826,42.273,9.336,17.111,20.329,33.331,30.866,49.77,8.022,12.516,16.537,24.715,24.595,37.209,1.226,1.9.524,5.1,1.83,6.885,2.646,3.608,7.633,6.155,8.862,10.026,3.88,12.212,6.5,24.826,9.534,37.3.762,3.137,2.229,6.563,1.6,9.472-.991,4.574-3.487,8.822-5.345,13.208-2.394-3.231-4.849-6.418-7.17-9.7-7.4-10.466-13.43-22.292-22.387-31.176-18.152-18-37.865-34.431-57-51.435-.641-.57-1.981-.354-3-.5a7.137,7.137,0,0,0,.946,2.481c8.1,8.47,15.651,17.606,24.548,25.15,18.969,16.083,35.8,33.7,46.588,56.419.574,1.209.418,2.765.6,4.159a20.878,20.878,0,0,1-3.451-2.965c-4.145-5.487-7.427-11.846-12.34-16.494-16.217-15.341-33.224-29.845-49.487-45.14-8.655-8.14-16.509-17.147-24.519-25.951-5.588-6.143-11.6-12.111-16.042-19.039-6.816-10.62-12.434-22.006-18.594-33.048-1.73-3.1-3.257-6.409-5.538-9.052-.838-.97-4.824-1.017-5.276-.249-4.738,8.039-8.956,16.381-13.516,24.529-2.526,4.514-7.281,8.636-7.739,13.26-.75,7.586-.582,16.194,2.35,23.018,5.937,13.822,13.971,26.744,21.21,40,.265.485,1.263.571,1.92.843-.025-.886-.055-1.771-.073-2.657-.483-23.265-.988-46.53-1.343-69.8-.013-.815,1.471-1.652,2.258-2.479.616.849,1.742,1.683,1.769,2.55.284,9.154-.647,18.479.779,27.435,2.565,16.12,2.234,34.977,10.8,47.379,16.449,23.81,35.1,46.605,61.523,61.978,17.013,9.9,31.134,24.762,46.614,37.323,1.409,1.142,3.281,1.715,4.937,2.552.691-1.486,1.29-3.024,2.09-4.448,2.145-3.818,4.3-7.636,6.589-11.366,4.811-7.826,9.8-15.542,14.511-23.427,1.048-1.756,1.242-4.022,1.83-6.053,1.612,1.644,3.2,3.312,4.845,4.925,1.586,1.555,3.213,4.352,4.849,4.372,14.739.179,29.485-.032,44.225-.347,6.8-.145,15.085,2.98,17.946-7.277.21-.752,1.772-1.127,2.706-1.678.484,1.06.931,2.138,1.457,3.177,3.473,6.853,6.78,13.8,10.516,20.507,2.137,3.838,5.329,7.093,7.426,10.949,3.626,6.664,5.008,15.445,15.025,4.362,8.062-8.922,18.681-15.631,28.555-22.783,7.2-5.216,16.015-8.514,22.391-14.5,14.363-13.478,28.81-27.18,41.009-42.548,8.992-11.328,17.416-24.723,20.762-38.492,3.877-15.954,1.876-33.328,2.566-50.08.063-1.524,1.144-3,1.753-4.506.789.822,2.276,1.654,2.264,2.464-.35,23.258-.85,46.513-1.33,69.768-.018.891-.079,1.782-.12,2.673.575-.115,1.488-.041,1.676-.374,7.19-12.761,16.763-24.871,20.624-38.586,2.777-9.863,8.771-22.537-3.079-33.364-4.55-4.157-3.989-13.481-7.107-19.782-2.137-4.32-6.557-7.534-10.124-11.074-.277-.275-2.318.507-2.784,1.263-2.276,3.7-3.986,7.764-6.456,11.309-15.9,22.818-31.205,46.11-48.272,68.025-7.911,10.158-19.747,17.161-29.092,26.32-14.792,14.5-28.979,29.613-43.454,44.437a20.949,20.949,0,0,1-2.931,2.127c.015-1.126-.423-2.575.114-3.33,10.062-14.13,19.264-29.033,30.654-42.013,12.407-14.139,26.882-26.462,40.391-39.642.8-.781,1.03-2.145,1.525-3.238-1.13.276-2.582.2-3.342.883-13.21,11.929-27.225,23.131-39.259,36.158-15.93,17.245-30.288,35.941-45.368,53.975-.484.579-1.47.737-2.221,1.091-1.315-5.732-3.684-11.474-3.633-17.194.046-5.181,2.949-10.287,4.208-15.519,2.385-9.914,3.848-20.109,7.053-29.735,1.2-3.614,7.1-5.431,9.22-9.032,2.735-4.65,2.837-10.929,5.8-15.356,13.325-19.93,28.685-38.633,40.6-59.338,13.958-24.251,30.038-48.342,29.742-78.153-.134-13.411.136-27.076-2.327-40.145-2.673-14.179-8.325-27.795-12.642-41.668-.422-1.356-.593-2.791-.88-4.189a23.436,23.436,0,0,0-1.921,4.614c-1.433,7.656-1.621,15.727-4.208,22.95-6.946,19.385-14.871,38.42-22.482,57.565a19.037,19.037,0,0,1-2.531,3.625c-.654-1.465-1.887-2.935-1.871-4.392.113-9.978.537-19.952.745-29.93.062-2.987-.246-5.981-.385-8.972-2.227,1.67-4.415,3.395-6.692,5-2.635,1.852-5.269,3.734-8.068,5.311-1.055.594-2.57.372-3.876.522.269-1.206.533-2.413.806-3.618,2.007-8.849,4.8-17.608,5.838-26.569a357.768,357.768,0,0,0,2.274-38.571c.08-11.133.445-22.676-2.223-33.309-3.075-12.247-9.387-23.674-14.156-35.513-.522-1.294-.14-2.953-.177-4.442,1.169.718,2.59,1.209,3.472,2.187,15.655,17.375,25.014,37.319,22.475,61.155-2.2,20.613-5.585,41.1-8.371,61.651a46.979,46.979,0,0,0-.037,6.292c1.749-1.524,3.4-3.192,5.279-4.528,1.686-1.2,4.173-3.241,5.332-2.724,1.62.723,3.125,3.408,3.293,5.372.539,6.305.424,12.664.609,19a16.986,16.986,0,0,0,.484,2.638c.706-.806,1.8-1.5,2.062-2.433q10.874-38.871,21.568-77.792c1.062-3.864,1.79-7.82,2.673-11.733,1.276,3.774,2.6,7.533,3.819,11.324q10.128,31.429,20.246,62.86c.161.5.75.862,1.139,1.288a5.637,5.637,0,0,0,.55-1.592c.246-9.82,1.016-19.666.558-29.455-1.177-25.2-4.806-50.638-21.717-70.043-16.014-18.376-27.182-44-57.34-45.719-12.576-.717-25.019-3.838-37.511-5.936-8.324-1.4-16.627-2.918-24.94-4.383,21.578,1.571,43.451,1.455,64.657,5.155C592.252,15,616.621,22.084,640.835,29.123c10.893,3.166,21.023,9.021,31.411,13.848C691.665,52,711.653,60.042,730.219,70.583c18.1,10.277,35.189,22.549,51.847,35.1,12.608,9.5,23.963,20.7,35.632,31.4,5.244,4.811,16.257,16.838,21.774,21.257M520.343,447.94c7.4,6.12,14.771,12.275,22.238,18.313.881.712,2.285.776,3.447,1.141.02-.391.2-.883.036-1.158-6-9.732-11.522-20.155-25.766-18.236H479.53c-12.718-1.412-19.322,6.232-24.244,16.368-.491,1.01-.989,2.017-1.484,3.026,1.161-.365,2.566-.429,3.447-1.142,7.466-6.037,14.837-12.192,22.237-18.312Q499.915,457.6,520.343,447.94ZM309.959,441.8a57.466,57.466,0,0,1-7.055,6.478c-2.766,2.073-6.2,4.28-9.442,4.442-4.279.214-11.025-.085-12.573-2.656-6.109-10.143-10.35-21.392-15.842-31.94-1.652-3.173-5.113-5.4-7.745-8.067.514,3.272.761,6.615,1.592,9.805,2.936,11.265,6.136,22.461,9.117,33.715,4.152,15.674,7.727,31.52,12.466,47.012,2.869,9.38,7.619,18.171,11.26,27.332,6.8,17.1,12.456,34.735,20.453,51.244,4.506,9.3,12.722,16.81,19.325,25.08.278.348,1.145.227,1.737.324a6.638,6.638,0,0,0-.029-1.872c-3.724-11.952-7.4-23.923-11.3-35.818-1.114-3.4-3.7-6.454-4.221-9.878-1.113-7.336-.852-14.884-2-22.212-2.014-12.868-4.814-25.611-6.9-38.469-.357-2.2,1.188-4.7,1.854-7.069,1.2,2.546,2.756,4.986,3.532,7.654,4.5,15.464,7.125,31.749,13.723,46.236,5.135,11.273,14.861,20.571,23.223,30.156,1.541,1.767,8.263-.493,9.285,1.157,7.084,11.428,17.778,17.288,29.666,22.2a251.641,251.641,0,0,1,29.518,14.37c16.616,9.579,32.829,19.86,49.1,30.018.779.485.919,2.711.608,3.936-.166.654-2.236,1.536-2.925,1.211-2-.945-3.6-2.764-5.612-3.668-4.664-2.093-9.855-3.235-14.151-5.871-8.153-5-15.383-11.633-23.8-16.071-17.6-9.289-35.724-17.6-53.65-26.278a11.505,11.505,0,0,0-2.664-.579,20.753,20.753,0,0,1,1.161,2.048c8.911,20.712,17.7,41.477,26.774,62.117,2.489,5.663,5.775,10.983,8.831,16.383.354.625,1.564.825,2.422,1.038a2.328,2.328,0,0,0,.723-1.514c-1.544-8.035-3.3-16.031-4.693-24.091-.4-2.309.228-4.794.384-7.2,1.837,1.344,4.109,2.354,5.439,4.087,8.932,11.629,16.73,24.3,26.782,34.835,6.865,7.194,16.6,11.788,25.382,16.976,12.3,7.266,23.07,18.637,39.8,14.621,4.973-1.194,11.288,1.452,15.548-.621a199.6,199.6,0,0,0,31.222-18.733,356.963,356.963,0,0,0,35.705-29.952c5.224-5.038,7.82-12.762,11.85-19.115.685-1.079,2.6-1.38,3.944-2.04.413,1.165,1.322,2.4,1.161,3.484-1.259,8.476-2.708,16.925-4.14,25.375-.216,1.269-.649,2.5-.982,3.75,1.306-.642,3.3-.947,3.808-1.979,4.347-8.932,8.487-17.966,12.568-27.024q10.02-22.243,19.881-44.557c1.155-2.6,2.108-5.3,3.155-7.95-2.611,1.13-5.17,2.406-7.844,3.357-3.932,1.4-8.314,1.923-11.862,3.946-14.8,8.44-29.326,17.357-44.018,25.989-9.241,5.43-18.582,10.69-27.919,15.953-1.163.656-2.854.557-3.778,1.389-.559.5-.112,2.124-.116,3.242-2.4-.73-4.926-1.22-7.085-2.39-.435-.235-.051-3.818.93-4.548,9.3-6.925,18.223-14.7,28.4-20.048,20.1-10.556,40.5-20.823,61.633-29.006,10.917-4.227,13.195-16.808,27.285-19.175,20-3.36,21.61-26.47,29.274-41.75,5.589-11.143,5.78-24.977,8.545-37.575.306-1.4,1.708-2.552,2.6-3.819.429,1.294,1.353,2.645,1.212,3.874-2.352,20.449-3.514,41.159-7.712,61.231-3.373,16.132-10.474,31.482-15.859,47.2a11.81,11.81,0,0,0-.181,3.194c.607-.193,1.459-.192,1.783-.606,6.619-8.459,15.057-16.115,19.357-25.636,9.067-20.076,16.144-41.066,23.689-61.808,5.732-15.763,17.718-28.212,18.324-47.156.579-18.112,8.285-35.989,12.746-54,.428-1.725.062-3.647.065-5.478-1.144,1.016-2.687,1.817-3.366,3.081-4.66,8.672-8.415,17.934-13.918,26.013-4,5.875-9.884,13.765-15.57,14.334-6.578.658-16.008-4.029-20.306-9.471-5.668-7.176,5.5-41.87,13.475-48.656,9.588-8.158,20.809-15.043,28.4-24.761,14.783-18.919,28.2-39.012,40.915-59.406,10.343-16.583,18.865-34.3,28.123-51.558a21.051,21.051,0,0,0,1.254-4.432c-1.092.618-2.48.99-3.234,1.891-17.887,21.369-35.458,43.013-53.853,63.933-2.287,2.6-8.939,2.1-13.463,1.728-2.822-.229-5.447-2.9-8.16-4.474-.415.987-1.4,2.141-1.163,2.937,3.907,13.244-1.353,24.074-9.443,33.72-7.143,8.518-15.3,16.179-22.657,24.528-2.555,2.9-5.539,6.628-5.764,10.141-.624,9.779.875,19.709.054,29.454-.737,8.733-3.339,17.325-5.327,25.93-1,4.328-1.163,9.881-3.939,12.591-13.143,12.834-27.042,24.894-40.723,37.173a19.63,19.63,0,0,1-3.714,2.105c1.842-.055,3.688-.209,5.525-.136,1.774.07,3.538.374,5.306.575-1.465,1.237-2.895,3.487-4.4,3.539-7.45.255-14.933.126-22.371-.358-1.507-.1-2.876-2.315-4.308-3.555a24,24,0,0,1,3.711-2.728c9.948-4.76,22.078-7.277,29.434-14.6,11.473-11.43,21.025-25.384,28.859-39.658,4.944-9.008,5.681-20.476,7.486-30.982.761-4.427-.59-9.216-.98-13.841-1.571,4.84-2.795,9.826-4.771,14.494-8.547,20.193-17.008,40.436-26.335,60.269-1.384,2.944-7.21,3.829-11.044,5.524-.25.11-1.551-1.454-1.513-1.5,2.328-2.667,4.937-5.105,7.115-7.883q7.653-9.759,14.9-19.829c.651-.9.237-2.574.317-3.89-.98.757-1.944,1.534-2.941,2.267-12.687,9.315-25.222,18.851-38.17,27.788-3.62,2.5-8.463,3.227-12.745,4.767,4.993.121,10,.1,14.974.447,1.572.11,3.075,1.215,4.61,1.865-.963,1.185-1.907,3.381-2.891,3.4-11.387.214-22.78.121-34.17.007-.656-.006-1.25-1.191-1.965-1.318-2.261-.4-4.564-.566-6.852-.822,2.577,2.2,5.117,4.447,7.762,6.561.579.462,1.774.2,2.28.694,2.447,2.376,5.642,4.552,6.775,7.492.661,1.715-2.776,4.632-3.127,7.179-1.585,11.521,7.366,19.991,17.336,16.735,2.555-.834,5.02-2.124,7.629-2.516.965-.144,2.444,1.549,3.229,2.714.255.379-.731,2.084-1.526,2.6-5.351,3.466-10.856,6.7-16.136,10.262-.493.333.276,2.464.383,3.766.412,5.011,3.054,11.856.758,14.693-6.738,8.325-15.322,15.2-23.566,22.191-.832.705-4.29-1.616-6.475-2.646-.371-.175-.47-.928-.694-1.414a14.354,14.354,0,0,1-1.432,2.428c-3.506,3.953-7.306,11.378-10.582,11.164-15.307-1-28.337,3.578-41.825,10.13-9.554,4.641-17.345,8.229-15.067,20.5a16.086,16.086,0,0,0,1.194,2.991,7.181,7.181,0,0,0,1.828-1.067c7.028-7.683,13.772-15.652,21.2-22.928,1.743-1.709,5.749-1.131,8.729-1.481.126-.015.789,1.51.547,1.845-4.048,5.6-7.958,11.317-12.379,16.608-8.773,10.5-22.682,17.894-19.881,35.092.674,4.137-.094,8.508-.2,12.771,2.768-2.556,5.458-5.205,8.338-7.627a10.39,10.39,0,0,1,4.607-2.557c1.791-.28,3.744.477,5.626.782-.682,1.636-1.059,3.5-2.1,4.869q-8.623,11.314-17.569,22.382a13.14,13.14,0,0,1-3.961,2.814q-11.109-13.595-21.754-27.56c-.405-.531.288-2.537,1.044-3.15.9-.731,2.925-1.38,3.59-.887,3.559,2.641,6.8,5.7,10.25,8.5a32.417,32.417,0,0,0,4.015,2.424,17.284,17.284,0,0,0,.386-3.17c-.786-13.184.27-26.394-12.128-36.458-7.231-5.87-11.769-15.049-17.574-22.7a39.737,39.737,0,0,0-3.314-3.45c1.843-.207,4.478-1.305,5.4-.481,8.419,7.482,16.55,15.289,24.73,23.038a17.965,17.965,0,0,1,1.886,2.526c.5-.57,1.548-1.4,1.419-1.67-2.788-5.823,4.985-14.826-7.077-18.25-14.7-4.171-26.815-15.646-43.875-14.228-4.9.408-10.432-4.964-15.389-8.131-1.328-.849-1.605-3.341-2.365-5.079-.19,1.623.17,3.76-.728,4.722a4.887,4.887,0,0,1-4.563.795c-3.264-1.676-6.744-3.5-9.155-6.158-7.306-8.055-19.469-13.269-17.1-27.337.477-2.835,3.077-7.03,2.063-8.1-4.1-4.322-9.221-7.685-14-11.362-1.221-.94-2.559-1.729-3.843-2.588,2.229-.578,5.148-2.357,6.573-1.538,9.144,5.254,16.751,5.712,20.511-5.908,1.556-4.808,1.635-10.118,2.154-15.224.183-1.808-1.158-4.692-.364-5.351,2.75-2.281,6.339-3.529,9.195-5.711,1.662-1.27,2.536-3.572,3.764-5.41a18.4,18.4,0,0,0-4.2.245c-7.88,2.311-15.653,6.309-23.595,6.651-5.987.258-12.174-4.107-18.272-6.414q6.484-.846,12.969-1.691a27.871,27.871,0,0,0,3.844-.512,19.186,19.186,0,0,0,3.127-1.473c-1-.747-1.945-2.076-2.99-2.155-21.245-1.606-33.892-16.907-47.984-29.921-.9-.835-1.953-1.512-2.935-2.262.087,1.318-.335,3.041.34,3.892,5.692,7.166,11.637,14.129,17.383,21.253,1.712,2.122,3.033,4.559,4.533,6.852-1.416.128-3,.738-4.224.312-16.517-5.745-19.816-21.553-25.178-35.046-5.455-13.728-8.533-28.4-12.738-42.632-.215-.726-1.251-1.208-1.905-1.8a8.314,8.314,0,0,0-.194,2.263c2.985,15.493,5.293,31.163,9.212,46.419,5.363,20.874,20.652,33.777,38.722,43.693,6.8,3.729,14.048,6.627,21.092,9.9q-11.9,1.966-23.8,3.935c-.159.026-.36.158-.466.1-2.242-1.219-4.474-2.458-6.708-3.693,1.958-.339,3.907-.759,5.878-.987,1.109-.129,2.258.114,3.383.068.328-.013.638-.447.957-.688-6.17-4.542-12.252-9.209-18.526-13.6-16.886-11.825-32.5-24.39-30.756-48.122.078-1.057-.661-2.149-.8-3.252-1.079-8.523-1.891-17.087-3.2-25.573-1.467-9.486,7.054-21.781-7.671-27.674-2.426-.971-5.128-2.192-6.727-4.11a183.388,183.388,0,0,1-12.69-17c-6.6-10.1-15.124-19.7-10.574-33.465.463-1.4-.563-3.293-.9-4.957a21.744,21.744,0,0,0-4.173,1.77c-5.194,3.6-10.3,11.269-16.867,3.477-17.091-20.284-33.439-41.193-50.21-61.75-2.093-2.566-4.945-4.513-7.445-6.747,1.024,2.9,2.065,5.791,3.065,8.7a17.134,17.134,0,0,0,.984,3.241q14.294,23.86,28.7,47.657c6.009,9.928,11.754,20.04,18.233,29.654,6.528,9.686,12.268,20.788,21.083,27.873C291.394,389.162,312.546,405.042,309.959,441.8Zm629.238-73.3-2.518-.416c-1.679-8.981-2.345-18.306-5.264-26.864-4.788-14.036-11.024-27.58-16.7-41.31a18.1,18.1,0,0,0-1.976-2.979,17.36,17.36,0,0,0-1.638,3.326c-2.068,8.2-4.918,16.349-5.579,24.67-.248,3.126,8,6.162-2.674,7.283-4.814.505-8.442,9.8-13.117,14.618-14.23,14.656-28.413,29.379-43.166,43.5-17.228,16.49-35.968,31.5-52.273,48.821-11.3,12-22.279,25.691-28.637,40.651-12.308,28.963-22.278,59.05-31.258,89.253-6.8,22.864-14.509,46.605-14.671,70.005-.209,30.189,4.864,60.832,11.36,90.468,3.075,14.028,14.821,26.126,22.492,39.184,10.176,17.322,20.208,34.729,30.309,52.095a3.9,3.9,0,0,0,.555.613,11.506,11.506,0,0,0,.421-1.723c.873-9.792,1.32-19.642,2.661-29.368,3.649-26.459,5-53.634,12.277-79.087,7.9-27.6,20.1-54.257,33.065-79.995,7.782-15.447,20.719-28.271,31.144-42.418,8.533-11.579,17.654-22.855,24.922-35.2a343.95,343.95,0,0,0,22.5-44.941c7.75-19.108,16.108-38.513,19.777-58.6C936.1,423.3,936.733,395.736,939.2,368.505Zm-850.635-69a12.7,12.7,0,0,0-1.278-2.529c-.52.3-1.3.463-1.521.908-2.816,5.584-5.789,11.106-8.267,16.84C65.539,342.382,60.3,371.515,63.2,401.3c2.43,24.93,6.009,50.1,12.7,74.156a260.044,260.044,0,0,0,25.811,60.4c14.6,25.1,32.412,48.331,48.9,72.326,7.789,11.336,17.133,21.871,23.217,34.046,7.954,15.917,13.7,32.982,19.794,49.77,5.753,15.844,12.691,31.63,15.546,48.06,3.419,19.671,3.06,40,4.337,60.041l-.789.057c.752,6.566,1.494,13.133,2.272,19.7a7.717,7.717,0,0,0,.559,1.6c.142-.269.275-.543.426-.806,6.965-12.15,14.089-24.211,20.861-36.467,11.563-20.927,26.337-40.892,33.408-63.269,7.6-24.038,10.059-50.344,10.6-75.748.376-17.781-6.225-35.712-9.744-53.569-2.526-12.822-4.132-25.931-7.927-38.368-4.061-13.312-10.05-26.054-15.485-38.923C241.339,499.3,236.6,483.145,227.7,469.8c-11.48-17.2-25.415-33.1-40.1-47.741-17.008-16.954-36.534-31.358-53.917-47.968-11.934-11.4-22.058-24.695-33.04-37.1a35.038,35.038,0,0,0-5.865-5.6c-.68-.477-2.51.685-3.814,1.1.637-1.994,1.161-4.035,1.972-5.955M297.642,718.471c1.476-3.942,1.986-5.3,2.5-6.668a21.528,21.528,0,0,1,4.1,2.687c1.421,1.464,2.133,3.707,3.687,4.935,12.329,9.746,24.594,19.593,37.256,28.9,14.869,10.923,29.919,21.628,45.27,31.859,10.849,7.229,22.712,12.956,33.419,20.37a333.8,333.8,0,0,1,31.151,24.617c14.414,12.768,28.166,26.282,42.332,39.335.971.894,3.777,1.391,4.476.735,5.895-5.53,11.353-11.526,17.222-17.086,10.529-9.977,20.43-20.883,32.085-29.347,18.568-13.484,38.51-25.059,57.581-37.874,14.237-9.567,27.912-19.967,42.05-29.687,5.358-3.683,12.049-5.662,16.84-9.885,10.287-9.069,19.716-19.109,29.575-28.67a2.62,2.62,0,0,1,2.55-.212c.663.627.821,1.848,1.058,2.849.3,1.261.025,3.285.75,3.717,5.625,3.346,11.409,6.428,17.206,9.473a2.934,2.934,0,0,0,2.633-.053,2.843,2.843,0,0,0,.284-2.564c-3.87-9.528-8.642-18.77-11.63-28.558-7.564-24.776-6.426-50.043-2.563-75.315.4-2.652.655-5.328.977-7.992-2.907,1.707-5.917,3.266-8.683,5.178-1.678,1.16-2.886,2.978-4.465,4.311-8.195,6.924-16.8,13.411-24.586,20.763-11,10.39-20.764,22.172-32.237,31.977-18.451,15.768-37.99,30.257-56.832,45.578-11.557,9.4-22.35,19.749-34.071,28.925a475.957,475.957,0,0,1-40.009,28.616c-3.769,2.366-11.435,2.189-15.381-.12-9.471-5.544-17.76-13.094-26.592-19.747-12.9-9.717-26.169-18.981-38.716-29.135-13.009-10.526-25.172-22.091-38.027-32.815-11.629-9.7-24.129-18.392-35.428-28.447-9.259-8.24-16.9-18.286-26.015-26.7-10.457-9.653-21.728-18.428-32.747-27.459a4.343,4.343,0,0,0-3.717-.4c-.586.234-.858,2.192-.665,3.264.638,3.54,2.131,7.009,2.261,10.544.635,17.266,2.541,34.706.823,51.765-1.28,12.715-7.322,24.969-11.417,37.371a85.344,85.344,0,0,1-4.095,8.937c2.907-.521,6.069-.489,8.665-1.686A119.643,119.643,0,0,0,297.642,718.471Zm195.29,217.856-2.228,1.95c2.408,2.078,4.594,4.564,7.325,6.045,1.2.652,4.134-.154,5.218-1.3,6.067-6.423,11.137-13.936,17.788-19.628,19.246-16.471,39.117-32.211,58.681-48.314,20.62-16.973,41.236-33.954,61.665-51.156,2.484-2.092,3.156-6.556,5.757-8.253,16.412-10.709,33.094-21.01,49.776-31.3,4.418-2.725,11.305-8.236,13.4-6.867C729.35,789.918,747.588,803.55,766,816.9a64.513,64.513,0,0,1,5.731,5.272c-.974-3-1.406-6.33-3.022-8.927-5.561-8.941-11.884-17.417-17.278-26.452-10.253-17.173-11.576-40.717-35.685-47.926-5.064-1.515-9.015-6.5-13.8-9.35-1.655-.987-4.916-1.3-6.34-.314-6.871,4.737-13.394,9.984-19.988,15.118-17.064,13.287-33.789,27.037-51.259,39.766-11.424,8.324-24.183,14.8-35.837,22.834-9.275,6.395-17.814,13.864-26.624,20.925-10.648,8.534-20.849,17.691-31.973,25.544-9.059,6.395-19.018,15.245-28.9,15.682-9.664.428-20.37-7.454-29.47-13.435-10.977-7.216-20.843-16.154-31.011-24.563-12.312-10.18-23.952-21.245-36.791-30.693-10.887-8.01-23.562-13.573-34.557-21.458-15.77-11.31-30.042-24.821-46.307-35.289-9.347-6.016-17.2-23.7-33.239-8.254-5.988,5.767-17.322,7.019-21.509,13.413-9.8,14.97-16.5,31.938-24.967,47.827-4.313,8.095-9.733,15.6-14.6,23.4a6.432,6.432,0,0,0-.428,2.168c.6-.475,1.2-.953,1.8-1.425,13.49-10.557,26.51-21.807,40.642-31.422,9.168-6.238,18.128-21.055,31.612-5.544,1.2,1.376,2.314,3.044,3.848,3.87a314.362,314.362,0,0,1,63.209,44.877c14.18,12.94,29.182,25.018,44.259,36.92,9.558,7.546,20.343,13.545,29.833,21.165,14.975,12.023,29.407,24.731,43.858,37.391C489.666,930.172,491.054,933.53,492.932,936.327ZM759.117,223.694c-2.755-9.032-5.794-19.032-8.886-29.015-.156-.5-.768-.867-1.168-1.3a11.479,11.479,0,0,0-.346,2.076c.079,5.467,2.309,12.178-.056,16.182-9.5,16.083-20.27,31.432-30.916,46.812-2.773,4.006-10.244,7.863-9.68,10.561,3.165,15.148,7.693,30.262,20.306,40.757,3.736,3.108,11.677,7.53,12.719,6.468,6.4-6.52,10.763-15,16.949-21.788,17.726-19.442,35.988-38.4,54.093-57.492a21.581,21.581,0,0,1,3.915-2.649c.172,2.46,1.2,5.263.373,7.324-4.412,11.018-8.971,22-14.082,32.71-6.288,13.177-12.62,26.389-19.946,39a371.012,371.012,0,0,1-24.566,37.427c-8.326,11.013-16.948,22.423-27.632,30.891-17.936,14.216-34.708,28.327-35.546,53.323-.085,2.512,2.993,6.422,5.512,7.446,4.579,1.862,13,4.36,14.323,2.56,11.61-15.838,21.713-32.773,33-48.862,2.327-3.316,7.746-4.462,11.739-6.608-.331,2.228-.238,4.629-1.06,6.659-7.09,17.505-14.7,34.813-21.234,52.517-1.194,3.233,1.755,8,2.792,12.053.8-.246,1.828-.256,2.359-.776,8.337-8.168,15.922-17.29,25.077-24.39,10.857-8.421,23.292-14.777,34.549-22.727,4.271-3.016,6.594-8.758,10.826-11.869,6.294-4.628,14.6-6.871,20.1-12.157,16.591-15.943,32.165-32.939,48.28-49.383,14.5-14.8,20.686-32.23,17.662-52.853-.211-1.439.6-3.028.935-4.548.544,1.379,1.025,2.786,1.651,4.126a31.493,31.493,0,0,0,1.686,2.836c.645-.838,2.031-2.05,1.825-2.456-3.443-6.788-6.353-14.016-10.829-20.077-10.353-14.021-20.917-27.973-32.5-40.968-7.82-8.773-19.06-14.724-25.974-24.019-7.679-10.323-12.163-23.02-18.09-34.658a33.014,33.014,0,0,0-2.5-3.649c-.465.524-1.19.977-1.356,1.583-2.98,10.853-4.559,22.341-9.213,32.41-4.2,9.08-12.274,16.279-17.694,24.9-8.674,13.8-16.969,27.879-24.494,42.324-1.79,3.436.1,8.791.3,13.263-1.117-4.581-2.247-9.159-3.337-13.746-.243-1.022-.342-2.078-.508-3.118a22.38,22.38,0,0,1-1.068,3.4c-1.145,2.333-2.448,4.589-3.687,6.876-.429-2.173-1.49-4.439-1.185-6.5C754.478,251.475,756.711,238.423,759.117,223.694ZM247.382,265.156a6.028,6.028,0,0,1,.042,3.109c-.239.6-3.3.866-3.409.6-1.062-2.62-1.774-5.383-2.585-8.105-.484,3.253-1,6.5-1.435,9.761-.19,1.419.019,2.933-.39,4.27a11.247,11.247,0,0,1-2.012,2.876c-.189-1.063-.392-2.123-.565-3.188-1.537-9.445-.485-20.486-5.13-28.011-10.2-16.528-24.371-30.592-34.777-47.019-5.938-9.375-7.679-21.414-11.255-32.271a28.625,28.625,0,0,1-.732-4.014,23.385,23.385,0,0,0-2.594,3.579c-4.494,9.506-8.122,19.534-13.622,28.406-3.079,4.968-9.672,7.608-13.867,12.064-7.743,8.225-15.154,16.8-22.223,25.616q-19.244,24-37.769,48.566c-1.088,1.438.013,4.591.292,6.923.033.273,1.7.769,1.954.513a9.441,9.441,0,0,0,1.389-2.581c.668-1.373,1.326-2.75,1.988-4.125.289,1.673.614,3.341.863,5.02,1.95,13.113.815,27.824,6.592,38.946,7.465,14.373,19.367,27.022,31.317,38.347,16.6,15.736,34.695,29.982,52.795,44.033,10.861,8.43,23.337,14.761,34.373,22.992,9.1,6.791,17.172,14.974,25.671,22.57,2.532,2.263,4.971,4.63,7.453,6.949,1.238-3.762,4.465-8.259,3.391-11.167-6.707-18.156-14.4-35.944-21.682-53.891a38.257,38.257,0,0,1-1.4-6.054c2.278.447,5.653.087,6.665,1.464,12.749,17.347,24.776,35.245,38.106,52.119,1.781,2.254,9.8.08,14.764-.9,2.314-.458,6.014-2.941,6.04-4.553.313-19.922-9.922-34.715-24.362-47.059-6.992-5.977-15.8-10.284-21.489-17.23-10.886-13.3-20.2-27.883-30.024-42.038-7.238-10.433-15.479-20.416-21.069-31.692-9.455-19.075-17.252-38.979-25.478-58.646-.8-1.905.273-4.6.587-6.911a3.6,3.6,0,0,1,2.028.162c3.514,2.746,7.441,5.176,10.306,8.507,18.863,21.929,37.414,44.126,56.272,66.06,3.033,3.527,9.956,9.1,10.26,8.806,13.013-12.729,26.839-25.26,27.692-45.353.128-3.01-.216-6.951-2.016-8.964-5.688-6.363-13.03-11.358-18.172-18.076-11.3-14.77-24.986-29.035-18.941-50.476.135-.48-.234-1.1-.368-1.659-.421.38-1.111.693-1.223,1.148-2.538,10.31-6.837,20.6-7.036,30.968C242.353,238.33,245.53,251.178,247.382,265.156Zm-34.9-75.713-3.878,2.53q12.1,18.414,24.277,36.777c.059.088,1.76-.465,1.915-.962,4.631-14.788,8.884-29.7,13.881-44.364,1.5-4.405,5.028-8.119,7.627-12.15.45,4.564.492,9.214,1.439,13.673,1.8,8.488,1.472,20.36,6.864,24.45,7.6,5.768,19.624,5.652,29.7,8.261,2.089.54,3.942,2,5.9,3.031-2.116,1.029-4.386,3.167-6.32,2.9-9.381-1.306-18.672-3.254-27.992-4.988-1.061-.2-2.107-.478-3.16-.719.064,1.077-.311,2.567.256,3.172,13.453,14.332,15.535,39.454,42.143,41.728,8.163.7,15.209,10.693,23.654,12.7,14.573,3.468,29.841,4.015,44.817,5.8,1.378.164,2.75.387,4.125.583-.933,1.378-1.684,3.768-2.828,3.974-8.494,1.529-17.063,2.647-25.616,3.835-1.565.218-3.169.165-4.754.237a19.547,19.547,0,0,0,2.683,3.589c8.022,6.779,17.961,12.167,23.79,20.459,9.314,13.247,20.343,16.5,34.918,12.578a11.9,11.9,0,0,1,2.652-.109,13.2,13.2,0,0,1-1.509,2.67c-6.444,6.97-6.631,11.053-.772,19.086a5.468,5.468,0,0,0,.843,1.182c7.227,5.55,12.415,20.537,24.227,5.279.4-.511,1.655-.353,2.512-.507-.5,1.318-.939,2.659-1.5,3.951-1.771,4.117-6.268,9.811-4.934,12.056,7.169,12.061,15.777,23.266,23.91,34.752,1.1,1.551,2.318,3.016,3.481,4.521-.16-2.558.232-5.308-.577-7.641-3.388-9.763-9.39-19.2-10.265-29.128-1.633-18.509-13.034-30.551-23.665-43.5C407,312.9,393.458,296.821,380.22,280.5c-7.331-9.038-14.259-18.4-21.276-27.692a25.82,25.82,0,0,1-2.247-4.633c1.418.747,3.134,1.2,4.206,2.29,5.027,5.108,9.847,10.421,14.821,15.583a15.845,15.845,0,0,0,3.1,2,14.775,14.775,0,0,0-.836-3.261c-4.962-9.615-11.391-18.739-14.7-28.884-5.695-17.451-9.284-35.58-14.167-53.311-1.1-3.99-3.09-8.459-6.108-11-3.255-2.738-8.2-3.471-12.4-5.078,4.913-.863,9.876-1.527,14.7-2.741,1.079-.271,2.375-2.467,2.38-3.781.036-11.522.1-23.064-.627-34.551-.13-2.063-3.638-4.188-5.942-5.766-2.478-1.7-5.373-2.783-8.087-4.136,2.122-.648,4.514-2.282,6.321-1.786,12.01,3.3,9.736-6.991,12.029-12.568,1.433-3.487.774-8.04,2.687-11.09,12.438-19.838,25.355-39.375,37.94-59.122.467-.731-.871-2.613-1.368-3.958-9.8,4.709-20.892,7.848-29.031,14.567-8.273,6.83-10.394,19.537-19.784,26.358a3.384,3.384,0,0,0-.589.768c-13.415,18.137-20.366,39.055-22.44,60.971-2.381,25.175-1.285,50.461,10.549,73.922.709,1.406.469,3.291.67,4.954-1.294-1.195-2.976-2.168-3.808-3.626-2.622-4.594-5.841-9.127-7.172-14.125-3.367-12.646-5.783-25.543-8.707-38.31a37.333,37.333,0,0,0-2.408-5.856c-.5,2.129-1.163,4.237-1.449,6.395a26.067,26.067,0,0,0,.183,4.674c-.869-1.953-1.772-3.891-2.6-5.861-2.62-6.24-4.076-13.377-8.089-18.526-5.613-7.2-13.145-12.906-19.815-19.294-4.979-4.767-5.228-9.916.211-14.135,1.358-1.053,6.083-.16,7.3,1.383,7.864,10,15.178,20.437,22.7,30.707a14.052,14.052,0,0,0,1.97,1.833,14.761,14.761,0,0,0,1.782-3.283c3.3-13.262,5.633-26.843,10-39.739,4.079-12.054,10.276-23.394,15.6-35.021.212-.462,1.045-.624,1.565-.961,4.57-2.961,9.156-5.9,13.662-8.955.38-.258.21-1.327.3-2.018a10.262,10.262,0,0,0-2.3.473c-18.711,8.56-37.827,16.36-55.995,25.952-20.313,10.723-40,22.7-59.481,34.9-8.528,5.341-13.727,13.7-4.2,22.44,19.245,17.656,39.154,34.586,58.8,51.806,2.09,1.831,4.237,3.6,6.357,5.393-3.153-.08-6.69.755-9.4-.383-27.054-11.36-47.548-30.246-62.471-55.383-.549-.924-2.032-1.294-3.08-1.921-3.035,9.913-7.591,19.661-8.689,29.784C209.628,167.562,211.776,178.581,212.48,189.443Zm498.5,35.751-11.409-4.63c1.388-.881,2.667-2.172,4.183-2.578,9.593-2.572,19.546-4.164,28.721-7.758,3.883-1.522,8.058-6.79,8.781-10.934,1.41-8.081.422-16.571.6-24.888.022-1.055,1.082-2.087,1.66-3.13.928.724,2.374,1.264,2.706,2.2,6.359,17.921,12.592,35.887,18.824,53.853a11.678,11.678,0,0,1,.32,2.25c.549-.257,1.352-.361,1.612-.793,7.7-12.8,22.2-21.945,20.515-39.821-.566-6.013,2.022-12.379,1.172-18.3-2.073-14.439-5.307-28.711-8.191-43.028-.029-.147-2.062-.344-2.449.1-11.362,13.068-21.486,27.5-34.3,38.924-9.5,8.463-22.434,13.089-33.956,19.2-.985.523-2.856-.625-4.316-1a12.639,12.639,0,0,1,2.008-3.065c19.216-16.019,38.81-31.609,57.518-48.2,4.933-4.374,11.2-16.039,10.012-17.162-12.32-11.706-25.4-22.9-39.563-32.288-11.5-7.63-24.657-12.842-37.273-18.709-15.917-7.4-32.029-14.388-48.077-21.506-.475-.211-1.184.1-1.784.175.167.578.146,1.432.529,1.691,4.51,3.057,9.134,5.951,13.589,9.083a5.471,5.471,0,0,1,1.619,3.122c.593,2.574.11,5.81,1.507,7.722,14.045,19.218,23.29,40.136,24.128,64.285a8.874,8.874,0,0,0,1.427,3.518,1.959,1.959,0,0,0,1.591-.276q11.212-13.92,22.289-27.948c1.254-1.594,2.4-5.12,3.089-4.993,3.193.586,6.207,2.146,9.285,3.357-1.471,3.713-2.56,7.637-4.479,11.1-7.855,14.181-32.034,17.19-27.452,40.057.155.771-1.72,1.949-2.649,2.938a23.7,23.7,0,0,0,.34-3.753c-.147-2.369-.491-4.727-.824-7.079a2.41,2.41,0,0,0-1.153-.058c-.614,1.83-1.122,3.694-1.687,5.541-5.532,18.073-11.039,36.153-16.7,54.187-.273.871-1.884,1.322-2.872,1.969a12.18,12.18,0,0,1,.077-3.548c3.217-9.762,8.675-19.334,9.386-29.255a390.871,390.871,0,0,0-.534-57.205c-.724-9.586-5.41-18.838-7.984-28.327-3.024-11.143-12.185-18.284-17.8-27.79-9.491-16.072-20.482-31.405-40.889-35.185A14.746,14.746,0,0,0,607,27.69a4.751,4.751,0,0,0,.226,2.879c2.229,2.931,4.706,5.673,7.086,8.489,15.616,18.482,28.952,38.1,34.246,62.387,1.2,5.525-.085,15.554,11.686,12.332,1.91-.522,4.374.98,6.581,1.547a88.421,88.421,0,0,0-8.358,4.248c-2.214,1.416-5.654,3.287-5.8,5.165-.635,8.381-1.274,17,.1,25.2.773,4.6-7.733,16.278,7.656,13.488,2.629-.477,5.82,2.138,8.751,3.326-3.161,1.336-6.6,2.254-9.409,4.121-3.154,2.1-7.493,4.61-8.274,7.708-4.045,16.051-5.886,32.742-10.926,48.43-3.936,12.255-11.441,23.358-17.309,35-.969,1.921-1.669,3.977-2.494,5.971a48.57,48.57,0,0,0,4.609-3.636c4.976-4.958,9.819-10.05,14.791-15.013a10.181,10.181,0,0,1,2.767-1.41c-.222,1.024-.137,2.284-.713,3.038-11.182,14.644-22.109,29.5-33.782,43.748-10.94,13.35-24.07,25.105-33.655,39.305-8.176,12.112-12.89,26.611-18.745,40.222-3.89,9.043-7.237,18.332-10.5,27.625-.812,2.312-.358,5.067-.486,7.619,1.156-1.555,2.395-3.055,3.453-4.674,6.312-9.655,11.461-20.385,19.212-28.689,6.486-6.948,7.229-11.329.376-17.439-1.15-1.025-1.413-3.045-2.086-4.6,1.636.766,3.673,1.148,4.835,2.366,4.6,4.824,8.848,8.61,14.378.947,3.083-4.272,6.06-9.474,10.4-11.826,13.7-7.419,8.8-11.409-1.844-15.422-1.1-.413-1.688-2.167-2.514-3.3a26.845,26.845,0,0,1,3.875.111c10.074,1.718,19.715,2.4,27.966-5.751,9.777-9.654,20.042-18.814,30.044-28.242a18.015,18.015,0,0,0,2.208-3.231c-1.364-.117-2.734-.182-4.091-.357-8.841-1.139-17.7-2.173-26.491-3.624-1.072-.178-1.766-2.644-2.636-4.049,1.257-.162,2.51-.373,3.771-.476,12.34-1.007,25.073-.461,36.9-3.477,9.395-2.4,17.438-9.694,26.564-13.722,4.468-1.973,12.158.46,14.74-2.4,11.657-12.9,22.031-26.972,32.766-40.7.524-.67.1-2.082.115-3.148-.917.224-1.844.417-2.75.678C726.54,220.679,718.841,222.916,710.984,225.194ZM790.83,850.028c.13,1.986.438,7.108.831,12.223a6.292,6.292,0,0,0,.837,1.887,9.924,9.924,0,0,0,2.01-1.259c11.818-12.124,24.586-23.488,35.17-36.612,15.351-19.036,30.659-38.429,43.164-59.356,14.641-24.5,27.052-50.444,38.944-76.442,11-24.037,21.523-48.5,29.393-73.678,5.174-16.549,3.753-35.061,7.949-52.036,8.676-35.1,5.554-70.27,3.58-105.543a16.766,16.766,0,0,0-1.284-4.03,27.965,27.965,0,0,0-1.746,4.3c-3.31,14.54-6.458,29.118-9.908,43.625-.408,1.717-2.352,3.069-3.584,4.591-.4-.665-1.239-1.4-1.145-1.984,2.11-13.265,4.888-26.452,6.378-39.783,2.088-18.684,3.3-37.468,4.669-56.225.122-1.663-1.3-3.438-2-5.161a34.916,34.916,0,0,0-1.61,5.031c-3.522,21.456-5.642,43.252-10.843,64.288-4.488,18.156-11.708,35.775-19.126,53.027A315.515,315.515,0,0,1,890.878,567.7c-6.288,10.183-14.549,19.136-21.754,28.77-7.551,10.1-15.37,20.045-22.182,30.631-6.529,10.146-11.937,21.017-17.763,31.61-.418.76-.229,1.854-.322,2.792a7.671,7.671,0,0,0,2.2-1.382c7.236-9.4,14.351-18.9,21.615-28.289,8.69-11.226,17.61-22.274,26.22-33.559,9.795-12.838,19.95-25.461,28.846-38.908,8.025-12.13,14.538-25.258,21.794-37.9a12.281,12.281,0,0,1,2.63-2.453c.418.982,1.32,2.04,1.179,2.935-1.341,8.521-1.24,17.758-4.714,25.34-4.945,10.791-12.263,20.563-19.1,30.4-8.18,11.776-16.61,23.409-25.507,34.649-8.348,10.545-17.812,20.21-26.118,30.785-9.122,11.613-18.59,23.193-25.854,35.955-6.94,12.193-11.635,25.74-16.593,38.964-5.372,14.328-11.917,28.638-14.375,43.546C796.428,789.8,794.334,818.437,790.83,850.028ZM52.01,576.311c0-.614-.249.584.037,1.635,7.038,25.876,12.834,52.185,21.588,77.47a608.2,608.2,0,0,0,30.5,71.595,370.906,370.906,0,0,0,33.6,55.669c18.337,24.724,38.789,47.889,58.577,71.52,3.2,3.821,7.634,6.608,11.5,9.873.393-5.267,1.528-10.6,1.048-15.791-2.059-22.244-3.213-44.7-7.328-66.59-4.466-23.755-11.388-47.1-18.186-70.341A95.169,95.169,0,0,0,171.1,684.96q-18.123-26.709-38.3-52c-8.189-10.286-18.991-18.534-26.883-29.006-10.592-14.055-20.854-28.7-28.694-44.377-5.739-11.474-7.385-25-10.717-37.653-.214-.811.762-1.936,1.184-2.915a10.68,10.68,0,0,1,2.363,2.065c9.222,14.99,18.3,30.068,27.591,45.016a220.437,220.437,0,0,0,12.623,18.765c15.4,19.887,31.1,39.54,46.61,59.338,4.088,5.218,7.909,10.646,11.892,15.948a11.294,11.294,0,0,0,1.78,1.559c.169-.533.621-1.175.464-1.582-1.958-5.09-3.318-10.578-6.178-15.116-5.313-8.432-11.563-16.27-17.335-24.418-7.862-11.095-15.532-22.329-23.488-33.356-8.238-11.416-19.24-21.587-24.589-34.188A946.9,946.9,0,0,1,66.468,462.5c-5.236-16.958-6.175-35.24-9.118-52.913a36.525,36.525,0,0,0-1.595-5.048c-.691,1.724-2.131,3.525-1.961,5.159,3.268,31.445,6.727,62.87,10.134,94.3.13,1.2.132,2.416.2,3.624-1.123-.907-2.948-1.621-3.259-2.751-3.237-11.769-6.278-23.594-9.27-35.429-1.194-4.719-2.131-9.5-3.184-14.259-.718,4.5-1.951,8.98-2.066,13.492-.5,19.624-1.577,39.3-.678,58.871C46.389,543.3,49.647,558.935,52.01,576.311ZM525.285,984.279c-.544.1,2.216.335,4.111-.831,18.149-11.166,36.365-22.246,54.129-34.006,14.843-9.826,28.54-21.47,43.763-30.613,21.261-12.769,43.479-23.944,65.247-35.873a7.417,7.417,0,0,0,2.289-2.749c.092-.149-.843-1.18-1.459-1.477-15.751-7.559-26.508-19.9-35.694-34.524-2.2-3.5-2.755-18.057-14.455-7.526-11.792,10.614-24.044,20.736-36.38,30.72-21.057,17.044-42.4,33.735-63.5,50.722-12.405,9.986-24.261,20.7-37.1,30.068-2.914,2.126-9.038.693-13.387-.345-2.139-.511-3.29-4.284-5.42-5.86-8.771-6.486-18.123-12.231-26.566-19.1-17.129-13.942-33.634-28.649-50.718-42.648-16.614-13.613-34.937-25.424-50.052-40.492-11.9-11.864-13.141-1.4-18.812,4.7-11.042,11.881-23.029,22.886-34.634,34.244-.52.509-1.69,1.123-1.61,1.341a5.082,5.082,0,0,0,1.653,2.614c15.906,9.46,32.046,18.537,47.768,28.289,28.352,17.586,56.169,36.056,84.8,53.165,13.269,7.929,27.36,15.777,42.128,19.51C494.259,986.855,508.608,984.279,525.285,984.279ZM278.254,565.516l-2.942,1.363c6.043,11.815,10.138,25.329,18.6,35.036,11.819,13.557,26.993,24.164,40.547,36.241,8.3,7.4,15.924,15.584,24.445,22.707,14,11.7,28.773,22.484,42.668,34.3,11.629,9.892,21.895,21.434,33.822,30.915,11.47,9.118,24.277,16.561,36.534,24.682,14.576,9.658,26.264,29.051,47.387,6.919,12.74-13.349,31.323-20.918,46.086-32.594,17.343-13.715,33.229-29.256,50.049-43.652,14.221-12.171,29.181-23.487,43.243-35.832,12.8-11.239,24.861-23.33,37.205-35.089,6.494-6.186,15.459-11.332,18.82-18.932,7.411-16.76,11.487-34.959,17.854-52.228,5.18-14.05,10.378-28.39,17.949-41.194,12.317-20.831,26.58-40.511,40.01-60.685.5-.755.883-1.591,1.32-2.39a11.455,11.455,0,0,0-2.968.759c-7.948,4.537-16.281,8.564-23.637,13.925-6.5,4.734-13.652,10-17.419,16.756-9.353,16.774-17.152,34.436-25.17,51.928-8.117,17.708-15.864,35.589-23.535,53.5-3.088,7.208-3.844,16.152-8.652,21.729-8.854,10.27-19.868,18.692-30.116,27.731-1.6,1.415-3.915,2.026-5.9,3.009-.356-2.283-1.525-4.809-.927-6.806,2.436-8.133,5.441-16.093,8.153-24.145a11.643,11.643,0,0,0,.172-3.12,11.388,11.388,0,0,0-1.6,1.3q-14.7,17.073-29.348,34.193c-2.929,3.441-7.886,6.953-8.079,10.633-1.3,24.733-16.242,41.1-32.986,56.534-1.415,1.3-3.811,1.545-5.751,2.28-.585-2.139-1.892-4.376-1.618-6.4.773-5.686,2.191-11.284,3.367-16.915.316-1.515.675-3.021,1.015-4.531-1.1,1.386-2.1,2.878-3.33,4.14-9.408,9.638-17.848,20.617-28.573,28.468-12.008,8.791-26.561,14.021-39.143,22.139-10.573,6.822-19.569,9.948-30.427.585-5.893-5.082-13.323-8.657-20.517-11.9-17.509-7.887-33.617-17.434-44.956-33.5-2.332-3.3-4.6-6.655-6.89-9.984,1.049,3.627,2.322,7.207,3.085,10.892a66.876,66.876,0,0,1,1.447,11.471c.056,1.811-.652,4.572-1.9,5.23-1.186.627-4.071-.387-5.261-1.606-6.057-6.2-12.6-12.161-17.448-19.245-5.214-7.613-8.992-16.262-12.932-24.676-3.377-7.212-4.022-17.972-9.511-21.489-14.562-9.331-23.595-22.109-31.092-36.781-.213-.418-.943-.571-1.432-.848a7.571,7.571,0,0,0-.01,2.664c2.248,5.846,5.189,11.5,6.747,17.514,1.139,4.393.5,9.246.661,13.893-3.4-2.309-6.814-4.61-10.2-6.937a15.007,15.007,0,0,1-1.844-1.514c-9.28-8.871-21.409-16.218-27.181-26.975-9.605-17.9-14.544-38.242-22.551-57.086-7.149-16.823-15.236-33.314-23.974-49.371-5.609-10.307-11.891-20.857-20.189-28.91-7.612-7.387-18.318-11.592-27.7-17.14a23.265,23.265,0,0,0-3.728-1.435c.653,1.019,1.244,2.085,1.969,3.051,9.792,13.039,21.058,25.238,29.051,39.3,10.578,18.609,18.825,38.57,27.624,58.153C271.036,545.309,274.419,555.514,278.254,565.516ZM762.643,877.421c1.173.425,6.857,4.12,8.5,2.8,7.04-5.678,18.661-9.547,12.6-22.98-3.464-7.682-3.552-18.462-9.113-23.333-18.5-16.205-38.672-30.526-58.526-45.13-2.728-2.007-8.6-3.428-10.773-1.91-14.862,10.361-29.217,21.463-43.466,32.669-1.851,1.457-3.772,6.049-2.929,7.217,10.014,13.873,20.211,27.646,31.082,40.852,5.581,6.781,12.023,13.128,22.661,7.561,3.346-1.751,8.209-1.044,12.333-.78C736.643,875.132,748.252,876.232,762.643,877.421Zm-547.881-9.015c-.034-.052.776,1.23,1.639,2.475,7.662,11.047,18.174,7.122,28.635,6.1,14.119-1.379,28.9-3.924,42.4-1.142,10.793,2.223,16.6-1.346,21.971-7.773,10.243-12.259,19.171-25.619,29.431-37.863,4.982-5.945,2.481-8.193-2.326-11.741-13.948-10.295-27.508-21.113-41.427-31.449-1.633-1.212-5.372-1.816-6.748-.809-16.614,12.17-32.058,26.224-49.645,36.7S216.247,848.723,214.762,868.406Zm347.575-369.3c-7.866,9.513-14.435,17.4-20.823,25.432-.206.26,2.333,2.364,2.078,2.973-3.8,9.077-7.123,18.477-12.065,26.917-4.855,8.292-11.18,15.789-17.468,23.112-1.035,1.205-5.2-.277-7.919-.517,1.07-2.156,2.068-4.351,3.222-6.46,4.972-9.091,10.012-18.146,14.917-27.273.205-.382-.7-1.973-1.065-1.963-14.618.4-29.237.833-43.838,1.6-1.195.063-3.515,3.144-3.2,3.81,3.147,6.58,6.722,12.955,10.216,19.367,2.135,3.918,4.342,7.8,6.517,11.692-4.932-2.1-11.746-2.851-14.41-6.574-5.871-8.206-9.66-17.9-14.278-27-2.883-5.679-6.149-11.215-8.432-17.129-1.361-3.525.25-9.568-1.914-11.157-6.6-4.846-16.331-12.877-21.279-10.873-8.4,3.4-14.874,12.967-20.58,21.055-3.079,4.365-3.479,11-3.788,16.689-.084,1.558,4.33,4.337,7.018,4.88,7.409,1.5,15.783.413,22.337,3.452,10.777,5,23.082,10.367,30,19.267,15.09,19.424,38.553,24.068,57.64,8.1,7.33-6.134,13.894-13.6,22.078-18.193,10.274-5.767,21.815-9.307,32.89-13.6,3.675-1.425,10.131-1.341,10.862-3.473,1.353-3.949.9-10.039-1.437-13.422-5.147-7.461-11.925-13.8-18.046-20.586C569.533,506.966,567.47,504.729,562.337,499.106Zm-80.1-1.141.216-2.625,8.048,3.26c-2.5.8-5.062,1.439-7.476,2.439-7.065,2.927-14.07,6-21.091,9.026-.242.105-.405.391-.6.592,4.094,3.879,8.05,7.924,12.388,11.509.975.806,3.292.112,4.971-.078,11.708-1.326,23.588-4.487,35.047-3.356,6.357.626,12.111,6.212,18.288-.267,2.293-2.406,4.317-5.07,6.463-7.616-2.386-.344-4.943-.263-7.118-1.134a65.269,65.269,0,0,1-8.656-4.78c-2.1-1.241-4.019-2.849-6.218-3.856a58.6,58.6,0,0,0-7.189-2.3c2.59-.871,5.34-2.793,7.743-2.427,9.057,1.378,17.938,4.506,27,5.081,10.679.676,19.988-12.547,31.9-3.738.338-1.149,1.237-2.486.925-3.418-3-8.95-16.263-13.177-23.968-7.543-8.752,6.4-18.047,11.327-27.007,1.682-12.125-13.052-38.366-14.438-50.537-1.558-7.641,8.086-15.449,9.168-24.549,2.212-10.387-7.939-20.442-6.511-26.833,3.365-.82,1.266-.964,2.97-1.421,4.471,1.43-.127,2.86-.353,4.291-.364,4.687-.039,9.5-.66,14.03.189,4.884.915,9.53,4.709,14.234,4.627C464.171,501.206,473.2,499.2,482.235,497.965ZM824.773,157.611c-.619,1.064-1.866,2.263-1.628,2.938,3.647,10.364,5,22.881,11.8,30.512,14.5,16.268,31.854,30,48.051,44.749a8.609,8.609,0,0,0,1.476.89,5.934,5.934,0,0,0-.488-1.272c-13.815-20.338-27.322-40.9-41.659-60.861C837.8,168.264,831.044,163.558,824.773,157.611ZM180.4,163.336l-3.365-2.711c-.477-.769-1.007-2.213-1.421-2.181-1.318.105-2.99.389-3.81,1.27-2.261,2.431-4.037,5.307-6.221,7.818-8.888,10.213-18.623,19.795-26.581,30.681-8.086,11.061-14.455,23.378-21.558,35.156-.682,1.13-1.24,2.334-1.856,3.5,1.07-.979,2.151-1.948,3.209-2.941,11.866-11.138,24.64-21.481,35.327-33.655C164.04,188.98,171.728,175.727,180.4,163.336Zm225.445,299.9c-2.486-1.515-3.1-1.787-3.589-2.2q-27.942-23.574-55.873-47.162a5.619,5.619,0,0,0-1.231-.606c-.151.4-.545.915-.418,1.185,4.047,8.613,5.986,19.969,12.7,25.2,12.724,9.924,28.169,16.371,42.556,24.129C400.884,464.273,402.4,463.606,405.843,463.24ZM656.86,415.985c-1.807-2.112-2.266-2.727-2.316-2.7a15.466,15.466,0,0,0-1.879,1.421c-7.11,6.222-14.092,12.6-21.346,18.647-10.972,9.151-22.15,18.052-33.171,27.144-.8.663-1.05,2-1.555,3.031,1.153.092,2.539.65,3.424.206,11.986-6.01,25.326-10.439,35.414-18.785C644.515,437.438,650.015,425.591,656.86,415.985Zm-159.3,49.667c-5.311-2.271-9.873-4.835-14.769-6.055-2.421-.6-5.636.9-8.183,2.1-7.162,3.381-14.135,7.161-21.272,10.6-.713.344-2.7-1.159-2.978-.837-1.841,2.124-4.852,4.6-4.728,6.8.336,5.965,17.075,11.115,22.038,7.564,8.88-6.353,18.08-12.258,27.147-18.35C495.551,466.978,496.291,466.494,497.562,465.652Zm22.031-6.7c-4.1,1.466-8.53,3-12.917,4.658a28.31,28.31,0,0,0-3.632,2c1.235.837,2.456,1.694,3.707,2.507,7.025,4.566,14.83,8.282,20.9,13.881,8.718,8.04,19.31,7.541,26.208-2.892.454-.687-.222-3.09-.961-3.436-4.067-1.9-8.486-3.081-12.468-5.124C533.448,466.964,526.694,462.936,519.593,458.955Zm-19.665,79.919c6.544-2.392,12.572-4.5,18.5-6.856,1.018-.4,1.619-1.861,2.412-2.831a10.413,10.413,0,0,0-2.979-.965q-17.964-.1-35.928.009a10.094,10.094,0,0,0-2.949.988c.8.965,1.416,2.41,2.441,2.815C487.358,534.384,493.387,536.488,499.928,538.874Zm157.326,41.013c-1.233-2.479-1.673-3.492-1.736-3.47-1.007.367-2.466.608-2.86,1.374-4.857,9.433-9.564,18.943-14.267,28.455-.164.333.11.883.18,1.331.392-.219.936-.339,1.154-.672C645.751,597.66,651.744,588.393,657.254,579.887ZM349.126,591.162l-2.19,1.646,13.5,14.475c.34-.359,1.045-.884.968-1.053-4.094-8.963-8.136-17.954-12.527-26.772-.714-1.435-3-2.086-4.564-3.1.53,1.782,1.017,3.579,1.6,5.344C346.956,584.865,348.053,588.01,349.126,591.162Z" transform="translate(-41.473 -5.522)"/><path class="a" d="M495.634,421.789l-6.065,4.245c-2.883-6.381-5.783-12.753-8.584-19.169-.112-.256.716-.923,1.1-1.4Z" transform="translate(-41.473 -5.522)"/><path class="a" d="M509.04,426.514c-.887-1.794-2.208-3.6-2.6-5.591-.225-1.138.841-2.75,1.709-3.845,3.125-3.944,6.412-7.759,9.638-11.623.4.34,1.195.83,1.132,1q-3.6,9.643-7.4,19.214C511.411,425.944,510.681,425.975,509.04,426.514Z" transform="translate(-41.473 -5.522)"/><path class="a" d="M638.3,521.507c-7.582,8.337-15.072,16.671-22.753,24.826-.581.617-2.519-.043-3.826-.11.573-.962,1.086-1.966,1.728-2.878q8.8-12.489,17.647-24.939c.723-1.016,1.632-1.9,2.455-2.843Z" transform="translate(-41.473 -5.522)"/><path class="a" d="M366.465,513.876c2.087,4.3,3.151,7.586,5.082,10.244,4.784,6.588,9.969,12.883,14.978,19.308.625.8,1.154,1.677,1.727,2.519-1.114.27-2.357,1.007-3.322.739-14.38-3.982-16.342-17.024-20.426-28.449C364.236,517.49,365.355,516.247,366.465,513.876Z" transform="translate(-41.473 -5.522)"/></svg>